M48
; DRILL file {KiCad 9.0.3} date 2025-10-05T01:50:26-0400
; FORMAT={-:-/ absolute / metric / decimal}
; #@! TF.CreationDate,2025-10-05T01:50:26-04:00
; #@! TF.GenerationSoftware,Kicad,Pcbnew,9.0.3
; #@! TF.FileFunction,Plated,1,2,PTH
FMAT,2
METRIC
; #@! TA.AperFunction,Plated,PTH,ComponentDrill
T1C0.800
; #@! TA.AperFunction,Plated,PTH,ComponentDrill
T2C0.900
; #@! TA.AperFunction,Plated,PTH,ComponentDrill
T3C1.000
; #@! TA.AperFunction,Plated,PTH,ComponentDrill
T4C1.020
; #@! TA.AperFunction,Plated,PTH,ComponentDrill
T5C1.070
; #@! TA.AperFunction,Plated,PTH,ComponentDrill
T6C1.200
; #@! TA.AperFunction,Plated,PTH,ComponentDrill
T7C1.300
; #@! TA.AperFunction,Plated,PTH,ComponentDrill
T8C4.500
%
G90
G05
T1
X23.69Y-60.0
X31.31Y-60.0
X32.3Y-28.0
X32.3Y-35.62
X37.7Y-46.88
X37.7Y-54.5
X40.0Y-30.0
X40.0Y-32.5
X47.1Y-51.333
X47.1Y-53.833
X47.3Y-28.0
X47.3Y-35.62
X67.5Y-43.69
X67.5Y-51.31
X90.0Y-28.69
X90.0Y-36.31
X97.5Y-28.69
X97.5Y-36.31
X104.49Y-45.1
X104.49Y-48.726
X104.58Y-36.9
X104.58Y-40.49
X104.68Y-53.8
X104.69Y-58.2
X104.69Y-73.6
X104.69Y-77.65
X104.69Y-81.9
X104.69Y-86.0
X104.724Y-99.051
X104.724Y-103.101
X104.79Y-91.35
X104.79Y-95.3
X104.88Y-63.1
X104.88Y-68.1
X112.11Y-45.1
X112.11Y-48.726
X112.2Y-36.9
X112.2Y-40.49
X112.3Y-53.8
X112.31Y-58.2
X112.31Y-73.6
X112.31Y-77.65
X112.31Y-81.9
X112.31Y-86.0
X112.344Y-99.051
X112.344Y-103.101
X112.41Y-91.35
X112.41Y-95.3
X112.5Y-63.1
X112.5Y-68.1
T2
X40.0Y-60.0
X40.0Y-62.54
X57.833Y-45.033
X57.833Y-50.033
X72.46Y-45.0
X75.0Y-45.0
T3
X37.34Y-40.0
X39.88Y-40.0
X42.42Y-40.0
X44.96Y-40.0
X47.5Y-40.0
X60.078Y-116.367
X61.11Y-59.306
X61.11Y-61.846
X61.11Y-64.386
X61.11Y-66.926
X61.11Y-69.466
X61.11Y-72.006
X61.11Y-74.546
X61.11Y-77.086
X61.11Y-79.626
X61.11Y-82.166
X61.11Y-84.706
X61.11Y-87.246
X61.11Y-89.786
X61.11Y-92.326
X61.11Y-94.866
X61.11Y-97.406
X61.11Y-99.946
X61.11Y-102.486
X61.11Y-105.026
X61.11Y-107.566
X62.618Y-116.367
X65.158Y-116.367
X67.698Y-116.367
X70.238Y-116.367
X72.778Y-116.367
X75.318Y-116.367
X77.858Y-116.367
X78.89Y-59.306
X78.89Y-61.846
X78.89Y-64.386
X78.89Y-66.926
X78.89Y-69.466
X78.89Y-72.006
X78.89Y-74.546
X78.89Y-77.086
X78.89Y-79.626
X78.89Y-82.166
X78.89Y-84.706
X78.89Y-87.246
X78.89Y-89.786
X78.89Y-92.326
X78.89Y-94.866
X78.89Y-97.406
X78.89Y-99.946
X78.89Y-102.486
X78.89Y-105.026
X78.89Y-107.566
X87.98Y-102.5
X90.52Y-102.5
X93.06Y-102.5
X95.6Y-102.5
X97.1Y-77.0
X97.1Y-79.54
X97.1Y-82.08
X97.1Y-84.62
X97.1Y-87.16
X97.1Y-89.7
X97.1Y-92.24
X97.1Y-94.78
X97.2Y-59.46
X97.2Y-62.0
X97.2Y-64.54
X97.2Y-67.08
X97.2Y-69.62
X97.3Y-44.58
X97.3Y-47.12
X97.3Y-49.66
X97.3Y-52.2
X116.582Y-97.9
X116.582Y-100.44
X116.582Y-102.98
X117.2Y-36.82
X117.2Y-39.36
X117.2Y-41.9
X117.289Y-73.811
X117.289Y-76.351
X117.289Y-78.891
X117.5Y-63.06
X117.5Y-65.6
X117.5Y-68.14
T4
X39.116Y-69.088
X39.116Y-71.628
X39.116Y-74.168
X39.116Y-76.708
X39.116Y-79.248
X39.116Y-81.788
X39.116Y-84.328
X39.116Y-86.868
X39.116Y-93.472
X39.116Y-96.012
X39.116Y-98.552
X39.116Y-101.092
X39.116Y-103.632
X39.116Y-106.172
X39.116Y-108.712
X39.116Y-111.252
X51.816Y-69.088
X51.816Y-71.628
X51.816Y-74.168
X51.816Y-76.708
X51.816Y-79.248
X51.816Y-81.788
X51.816Y-84.328
X51.816Y-86.868
X51.816Y-93.472
X51.816Y-96.012
X51.816Y-98.552
X51.816Y-101.092
X51.816Y-103.632
X51.816Y-106.172
X51.816Y-108.712
X51.816Y-111.252
T5
X87.5Y-44.68
X87.5Y-47.22
X87.5Y-49.76
X87.5Y-52.3
X87.5Y-54.84
X87.5Y-57.38
X87.5Y-59.92
X87.5Y-62.46
X87.5Y-65.0
X87.5Y-67.54
X87.5Y-70.08
X87.5Y-72.62
X87.5Y-75.16
X87.5Y-77.7
X87.5Y-80.24
X87.5Y-82.78
X87.5Y-85.32
X87.5Y-87.86
X87.5Y-90.4
X87.5Y-92.94
X90.04Y-44.68
X90.04Y-47.22
X90.04Y-49.76
X90.04Y-52.3
X90.04Y-54.84
X90.04Y-57.38
X90.04Y-59.92
X90.04Y-62.46
X90.04Y-65.0
X90.04Y-67.54
X90.04Y-70.08
X90.04Y-72.62
X90.04Y-75.16
X90.04Y-77.7
X90.04Y-80.24
X90.04Y-82.78
X90.04Y-85.32
X90.04Y-87.86
X90.04Y-90.4
X90.04Y-92.94
T6
X57.5Y-32.5
X62.55Y-32.5
X75.0Y-32.5
X80.05Y-32.5
T7
X28.956Y-92.71
X28.956Y-95.25
X28.956Y-97.82
X29.056Y-67.75
X29.056Y-70.29
X29.056Y-72.86
X29.056Y-80.29
X29.056Y-82.83
X29.056Y-85.4
X29.056Y-105.25
X29.056Y-107.79
X29.056Y-110.36
T8
X27.0Y-41.4
X27.0Y-48.6
M30
