%TF.GenerationSoftware,KiCad,Pcbnew,9.0.3*%
%TF.CreationDate,2025-08-05T09:32:10-05:00*%
%TF.ProjectId,Power Distribution PCB Schematic,506f7765-7220-4446-9973-747269627574,rev?*%
%TF.SameCoordinates,Original*%
%TF.FileFunction,Copper,L1,Top*%
%TF.FilePolarity,Positive*%
%FSLAX46Y46*%
G04 Gerber Fmt 4.6, Leading zero omitted, Abs format (unit mm)*
G04 Created by KiCad (PCBNEW 9.0.3) date 2025-08-05 09:32:10*
%MOMM*%
%LPD*%
G01*
G04 APERTURE LIST*
G04 Aperture macros list*
%AMRoundRect*
0 Rectangle with rounded corners*
0 $1 Rounding radius*
0 $2 $3 $4 $5 $6 $7 $8 $9 X,Y pos of 4 corners*
0 Add a 4 corners polygon primitive as box body*
4,1,4,$2,$3,$4,$5,$6,$7,$8,$9,$2,$3,0*
0 Add four circle primitives for the rounded corners*
1,1,$1+$1,$2,$3*
1,1,$1+$1,$4,$5*
1,1,$1+$1,$6,$7*
1,1,$1+$1,$8,$9*
0 Add four rect primitives between the rounded corners*
20,1,$1+$1,$2,$3,$4,$5,0*
20,1,$1+$1,$4,$5,$6,$7,0*
20,1,$1+$1,$6,$7,$8,$9,0*
20,1,$1+$1,$8,$9,$2,$3,0*%
%AMFreePoly0*
4,1,37,0.800000,0.796148,0.878414,0.796148,1.032228,0.765552,1.177117,0.705537,1.307515,0.618408,1.418408,0.507515,1.505537,0.377117,1.565552,0.232228,1.596148,0.078414,1.596148,-0.078414,1.565552,-0.232228,1.505537,-0.377117,1.418408,-0.507515,1.307515,-0.618408,1.177117,-0.705537,1.032228,-0.765552,0.878414,-0.796148,0.800000,-0.796148,0.800000,-0.800000,-1.400000,-0.800000,
-1.403843,-0.796157,-1.439018,-0.796157,-1.511114,-0.766294,-1.566294,-0.711114,-1.596157,-0.639018,-1.596157,-0.603843,-1.600000,-0.600000,-1.600000,0.600000,-1.596157,0.603843,-1.596157,0.639018,-1.566294,0.711114,-1.511114,0.766294,-1.439018,0.796157,-1.403843,0.796157,-1.400000,0.800000,0.800000,0.800000,0.800000,0.796148,0.800000,0.796148,$1*%
%AMFreePoly1*
4,1,37,1.403843,0.796157,1.439018,0.796157,1.511114,0.766294,1.566294,0.711114,1.596157,0.639018,1.596157,0.603843,1.600000,0.600000,1.600000,-0.600000,1.596157,-0.603843,1.596157,-0.639018,1.566294,-0.711114,1.511114,-0.766294,1.439018,-0.796157,1.403843,-0.796157,1.400000,-0.800000,-0.800000,-0.800000,-0.800000,-0.796148,-0.878414,-0.796148,-1.032228,-0.765552,-1.177117,-0.705537,
-1.307515,-0.618408,-1.418408,-0.507515,-1.505537,-0.377117,-1.565552,-0.232228,-1.596148,-0.078414,-1.596148,0.078414,-1.565552,0.232228,-1.505537,0.377117,-1.418408,0.507515,-1.307515,0.618408,-1.177117,0.705537,-1.032228,0.765552,-0.878414,0.796148,-0.800000,0.796148,-0.800000,0.800000,1.400000,0.800000,1.403843,0.796157,1.403843,0.796157,$1*%
%AMFreePoly2*
4,1,37,0.603843,0.796157,0.639018,0.796157,0.711114,0.766294,0.766294,0.711114,0.796157,0.639018,0.796157,0.603843,0.800000,0.600000,0.800000,-0.600000,0.796157,-0.603843,0.796157,-0.639018,0.766294,-0.711114,0.711114,-0.766294,0.639018,-0.796157,0.603843,-0.796157,0.600000,-0.800000,0.000000,-0.800000,0.000000,-0.796148,-0.078414,-0.796148,-0.232228,-0.765552,-0.377117,-0.705537,
-0.507515,-0.618408,-0.618408,-0.507515,-0.705537,-0.377117,-0.765552,-0.232228,-0.796148,-0.078414,-0.796148,0.078414,-0.765552,0.232228,-0.705537,0.377117,-0.618408,0.507515,-0.507515,0.618408,-0.377117,0.705537,-0.232228,0.765552,-0.078414,0.796148,0.000000,0.796148,0.000000,0.800000,0.600000,0.800000,0.603843,0.796157,0.603843,0.796157,$1*%
%AMFreePoly3*
4,1,37,0.000000,0.796148,0.078414,0.796148,0.232228,0.765552,0.377117,0.705537,0.507515,0.618408,0.618408,0.507515,0.705537,0.377117,0.765552,0.232228,0.796148,0.078414,0.796148,-0.078414,0.765552,-0.232228,0.705537,-0.377117,0.618408,-0.507515,0.507515,-0.618408,0.377117,-0.705537,0.232228,-0.765552,0.078414,-0.796148,0.000000,-0.796148,0.000000,-0.800000,-0.600000,-0.800000,
-0.603843,-0.796157,-0.639018,-0.796157,-0.711114,-0.766294,-0.766294,-0.711114,-0.796157,-0.639018,-0.796157,-0.603843,-0.800000,-0.600000,-0.800000,0.600000,-0.796157,0.603843,-0.796157,0.639018,-0.766294,0.711114,-0.711114,0.766294,-0.639018,0.796157,-0.603843,0.796157,-0.600000,0.800000,0.000000,0.800000,0.000000,0.796148,0.000000,0.796148,$1*%
G04 Aperture macros list end*
%TA.AperFunction,ComponentPad*%
%ADD10C,1.800000*%
%TD*%
%TA.AperFunction,ComponentPad*%
%ADD11C,2.000000*%
%TD*%
%TA.AperFunction,ComponentPad*%
%ADD12RoundRect,0.250000X-0.550000X0.550000X-0.550000X-0.550000X0.550000X-0.550000X0.550000X0.550000X0*%
%TD*%
%TA.AperFunction,ComponentPad*%
%ADD13C,1.600000*%
%TD*%
%TA.AperFunction,ComponentPad*%
%ADD14RoundRect,0.250000X-0.350000X0.350000X-0.350000X-0.350000X0.350000X-0.350000X0.350000X0.350000X0*%
%TD*%
%TA.AperFunction,ComponentPad*%
%ADD15C,1.200000*%
%TD*%
%TA.AperFunction,SMDPad,CuDef*%
%ADD16FreePoly0,0.000000*%
%TD*%
%TA.AperFunction,ComponentPad*%
%ADD17RoundRect,0.200000X-0.600000X-0.600000X0.600000X-0.600000X0.600000X0.600000X-0.600000X0.600000X0*%
%TD*%
%TA.AperFunction,SMDPad,CuDef*%
%ADD18RoundRect,0.800000X-0.800000X-0.000010X0.800000X-0.000010X0.800000X0.000010X-0.800000X0.000010X0*%
%TD*%
%TA.AperFunction,SMDPad,CuDef*%
%ADD19FreePoly1,0.000000*%
%TD*%
%TA.AperFunction,ComponentPad*%
%ADD20FreePoly2,0.000000*%
%TD*%
%TA.AperFunction,ComponentPad*%
%ADD21FreePoly3,0.000000*%
%TD*%
%TA.AperFunction,ComponentPad*%
%ADD22R,1.700000X1.700000*%
%TD*%
%TA.AperFunction,ComponentPad*%
%ADD23C,1.700000*%
%TD*%
%TA.AperFunction,ComponentPad*%
%ADD24R,1.800000X1.800000*%
%TD*%
%TA.AperFunction,ComponentPad*%
%ADD25RoundRect,1.500000X-1.500000X1.500000X-1.500000X-1.500000X1.500000X-1.500000X1.500000X1.500000X0*%
%TD*%
%TA.AperFunction,ComponentPad*%
%ADD26C,6.000000*%
%TD*%
%TA.AperFunction,ComponentPad*%
%ADD27R,1.605000X1.605000*%
%TD*%
%TA.AperFunction,ComponentPad*%
%ADD28C,1.605000*%
%TD*%
%TA.AperFunction,Conductor*%
%ADD29C,0.800000*%
%TD*%
%TA.AperFunction,Conductor*%
%ADD30C,0.400000*%
%TD*%
%TA.AperFunction,Conductor*%
%ADD31C,0.150000*%
%TD*%
%TA.AperFunction,Conductor*%
%ADD32C,1.100000*%
%TD*%
%TA.AperFunction,Conductor*%
%ADD33C,2.000000*%
%TD*%
%TA.AperFunction,Conductor*%
%ADD34C,0.750000*%
%TD*%
%TA.AperFunction,Conductor*%
%ADD35C,0.200000*%
%TD*%
%TA.AperFunction,Conductor*%
%ADD36C,1.000000*%
%TD*%
G04 APERTURE END LIST*
D10*
%TO.P,Driver_Board1,1,GND*%
%TO.N,GND*%
X34720000Y-56236465D03*
%TO.P,Driver_Board1,2,VCC*%
%TO.N,/5V_Bus*%
X34720000Y-58776465D03*
%TO.P,Driver_Board1,3,AO1*%
%TO.N,Net-(Driver_Board1-AO1)*%
X34720000Y-61316465D03*
%TO.P,Driver_Board1,4,AO2*%
%TO.N,Net-(Driver_Board1-AO2)*%
X34720000Y-63856465D03*
%TO.P,Driver_Board1,5,BO2*%
%TO.N,Net-(Driver_Board1-BO2)*%
X34720000Y-66396465D03*
%TO.P,Driver_Board1,6,BO1*%
%TO.N,Net-(Driver_Board1-BO1)*%
X34720000Y-68936465D03*
%TO.P,Driver_Board1,7,VMOT*%
%TO.N,/12V_Bus*%
X34720000Y-71476465D03*
%TO.P,Driver_Board1,8,GND*%
%TO.N,GND*%
X34720000Y-74016465D03*
%TO.P,Driver_Board1,9,PWMA*%
%TO.N,Net-(A1-GPIO0)*%
X47420000Y-56236465D03*
%TO.P,Driver_Board1,10,AIN2*%
%TO.N,Net-(A1-GPIO1)*%
X47420000Y-58776465D03*
%TO.P,Driver_Board1,11,AIN1*%
%TO.N,Net-(A1-GPIO2)*%
X47420000Y-61316465D03*
%TO.P,Driver_Board1,12,STBY*%
%TO.N,Net-(A1-GPIO3)*%
X47420000Y-63856465D03*
%TO.P,Driver_Board1,13,BIN1*%
%TO.N,Net-(A1-GPIO4)*%
X47420000Y-66396465D03*
%TO.P,Driver_Board1,14,BIN2*%
%TO.N,Net-(A1-GPIO5)*%
X47420000Y-68936465D03*
%TO.P,Driver_Board1,15,PWMB*%
%TO.N,Net-(A1-GPIO6)*%
X47420000Y-71476465D03*
%TO.P,Driver_Board1,16,GND*%
%TO.N,GND*%
X47420000Y-74016465D03*
%TD*%
D11*
%TO.P,J2,1,M+*%
%TO.N,/12V_Bus*%
X57110000Y-33226465D03*
%TO.P,J2,2,M-*%
X54570000Y-33226465D03*
%TO.P,J2,3,GND*%
%TO.N,GND*%
X52000000Y-33226465D03*
%TD*%
D12*
%TO.P,C2,1*%
%TO.N,/12V_Bus*%
X41406148Y-32626465D03*
D13*
%TO.P,C2,2*%
%TO.N,GND*%
X41406148Y-35126465D03*
%TD*%
D14*
%TO.P,C1,1*%
%TO.N,/12V_Bus*%
X47570000Y-30626465D03*
D15*
%TO.P,C1,2*%
%TO.N,GND*%
X47570000Y-32626465D03*
%TD*%
D14*
%TO.P,330uF1,1*%
%TO.N,/12V_Bus*%
X35070000Y-31153866D03*
D15*
%TO.P,330uF1,2*%
%TO.N,GND*%
X35070000Y-33153866D03*
%TD*%
D16*
%TO.P,A1,1,GPIO0*%
%TO.N,Net-(A1-GPIO0)*%
X52086465Y-56248800D03*
D17*
X52886465Y-56248800D03*
D18*
%TO.P,A1,2,GPIO1*%
%TO.N,Net-(A1-GPIO1)*%
X52086465Y-58788800D03*
D13*
X52886465Y-58788800D03*
D19*
%TO.P,A1,3,GND*%
%TO.N,GND*%
X52086465Y-61328800D03*
D20*
X52886465Y-61328800D03*
D18*
%TO.P,A1,4,GPIO2*%
%TO.N,Net-(A1-GPIO2)*%
X52086465Y-63868800D03*
D13*
X52886465Y-63868800D03*
D18*
%TO.P,A1,5,GPIO3*%
%TO.N,Net-(A1-GPIO3)*%
X52086465Y-66408800D03*
D13*
X52886465Y-66408800D03*
D18*
%TO.P,A1,6,GPIO4*%
%TO.N,Net-(A1-GPIO4)*%
X52086465Y-68948800D03*
D13*
X52886465Y-68948800D03*
D18*
%TO.P,A1,7,GPIO5*%
%TO.N,Net-(A1-GPIO5)*%
X52086465Y-71488800D03*
D13*
X52886465Y-71488800D03*
D19*
%TO.P,A1,8,GND*%
%TO.N,GND*%
X52086465Y-74028800D03*
D20*
X52886465Y-74028800D03*
D18*
%TO.P,A1,9,GPIO6*%
%TO.N,Net-(A1-GPIO6)*%
X52086465Y-76568800D03*
D13*
X52886465Y-76568800D03*
D18*
%TO.P,A1,10,GPIO7*%
%TO.N,Net-(A1-GPIO7)*%
X52086465Y-79108800D03*
D13*
X52886465Y-79108800D03*
D18*
%TO.P,A1,11,GPIO8*%
%TO.N,Net-(A1-GPIO8)*%
X52086465Y-81648800D03*
D13*
X52886465Y-81648800D03*
D18*
%TO.P,A1,12,GPIO9*%
%TO.N,Net-(A1-GPIO9)*%
X52086465Y-84188800D03*
D13*
X52886465Y-84188800D03*
D19*
%TO.P,A1,13,GND*%
%TO.N,GND*%
X52086465Y-86728800D03*
D20*
X52886465Y-86728800D03*
D18*
%TO.P,A1,14,GPIO10*%
%TO.N,Net-(A1-GPIO10)*%
X52086465Y-89268800D03*
D13*
X52886465Y-89268800D03*
D18*
%TO.P,A1,15,GPIO11*%
%TO.N,Net-(A1-GPIO11)*%
X52086465Y-91808800D03*
D13*
X52886465Y-91808800D03*
D18*
%TO.P,A1,16,GPIO12*%
%TO.N,Net-(A1-GPIO12)*%
X52086465Y-94348800D03*
D13*
X52886465Y-94348800D03*
D18*
%TO.P,A1,17,GPIO13*%
%TO.N,Net-(A1-GPIO13)*%
X52086465Y-96888800D03*
D13*
X52886465Y-96888800D03*
D19*
%TO.P,A1,18,GND*%
%TO.N,GND*%
X52086465Y-99428800D03*
D20*
X52886465Y-99428800D03*
D18*
%TO.P,A1,19,GPIO14*%
%TO.N,Net-(A1-GPIO14)*%
X52086465Y-101968800D03*
D13*
X52886465Y-101968800D03*
D18*
%TO.P,A1,20,GPIO15*%
%TO.N,Net-(A1-GPIO15)*%
X52086465Y-104508800D03*
D13*
X52886465Y-104508800D03*
%TO.P,A1,21,GPIO16*%
%TO.N,Net-(A1-GPIO16)*%
X70666465Y-104508800D03*
D18*
X71466465Y-104508800D03*
D13*
%TO.P,A1,22,GPIO17*%
%TO.N,Net-(A1-GPIO17)*%
X70666465Y-101968800D03*
D18*
X71466465Y-101968800D03*
D21*
%TO.P,A1,23,GND*%
%TO.N,GND*%
X70666465Y-99428800D03*
D16*
X71466465Y-99428800D03*
D13*
%TO.P,A1,24,GPIO18*%
%TO.N,Net-(A1-GPIO18)*%
X70666465Y-96888800D03*
D18*
X71466465Y-96888800D03*
D13*
%TO.P,A1,25,GPIO19*%
%TO.N,Net-(A1-GPIO19)*%
X70666465Y-94348800D03*
D18*
X71466465Y-94348800D03*
D13*
%TO.P,A1,26,GPIO20*%
%TO.N,Net-(A1-GPIO20)*%
X70666465Y-91808800D03*
D18*
X71466465Y-91808800D03*
D13*
%TO.P,A1,27,GPIO21*%
%TO.N,Net-(A1-GPIO21)*%
X70666465Y-89268800D03*
D18*
X71466465Y-89268800D03*
D21*
%TO.P,A1,28,GND*%
%TO.N,GND*%
X70666465Y-86728800D03*
D16*
X71466465Y-86728800D03*
D13*
%TO.P,A1,29,GPIO22*%
%TO.N,Net-(A1-GPIO22)*%
X70666465Y-84188800D03*
D18*
X71466465Y-84188800D03*
D13*
%TO.P,A1,30,RUN*%
%TO.N,unconnected-(A1-RUN-Pad30)*%
X70666465Y-81648800D03*
D18*
X71466465Y-81648800D03*
D13*
%TO.P,A1,31,GPIO26_ADC0*%
%TO.N,Net-(A1-GPIO26_ADC0)*%
X70666465Y-79108800D03*
D18*
X71466465Y-79108800D03*
D13*
%TO.P,A1,32,GPIO27_ADC1*%
%TO.N,unconnected-(A1-GPIO27_ADC1-Pad32)_1*%
X70666465Y-76568800D03*
D18*
X71466465Y-76568800D03*
D21*
%TO.P,A1,33,AGND*%
%TO.N,unconnected-(A1-AGND-Pad33)_1*%
X70666465Y-74028800D03*
D16*
X71466465Y-74028800D03*
D13*
%TO.P,A1,34,GPIO28_ADC2*%
%TO.N,unconnected-(A1-GPIO28_ADC2-Pad34)_1*%
X70666465Y-71488800D03*
D18*
X71466465Y-71488800D03*
D13*
%TO.P,A1,35,ADC_VREF*%
%TO.N,Net-(A1-3V3_EN)*%
X70666465Y-68948800D03*
D18*
X71466465Y-68948800D03*
D13*
%TO.P,A1,36,3V3*%
%TO.N,unconnected-(A1-3V3-Pad36)*%
X70666465Y-66408800D03*
D18*
X71466465Y-66408800D03*
D13*
%TO.P,A1,37,3V3_EN*%
%TO.N,Net-(A1-3V3_EN)*%
X70666465Y-63868800D03*
D18*
X71466465Y-63868800D03*
D21*
%TO.P,A1,38,GND*%
%TO.N,GND*%
X70666465Y-61328800D03*
D16*
X71466465Y-61328800D03*
D13*
%TO.P,A1,39,VSYS*%
%TO.N,/5V_Bus*%
X70666465Y-58788800D03*
D18*
X71466465Y-58788800D03*
D13*
%TO.P,A1,40,VBUS*%
%TO.N,unconnected-(A1-VBUS-Pad40)*%
X70666465Y-56248800D03*
D18*
X71466465Y-56248800D03*
%TD*%
D11*
%TO.P,J8,1,M+*%
%TO.N,Net-(Driver_Board1-AO1)*%
X28570000Y-65586465D03*
%TO.P,J8,2,M-*%
%TO.N,Net-(Driver_Board1-AO2)*%
X28570000Y-68126465D03*
%TO.P,J8,3,GND*%
%TO.N,GND*%
X28570000Y-70696465D03*
%TD*%
D22*
%TO.P,J20,1,EN*%
%TO.N,unconnected-(J20-EN-Pad1)*%
X45150000Y-41126465D03*
D23*
%TO.P,J20,2,Vin*%
%TO.N,/12V_Bus*%
X42610000Y-41126465D03*
%TO.P,J20,3,GND*%
%TO.N,GND*%
X40070000Y-41126465D03*
%TO.P,J20,4,GND*%
X37530000Y-41126465D03*
%TO.P,J20,5,Vout*%
%TO.N,Net-(J20-Vout)*%
X34990000Y-41126465D03*
%TD*%
D13*
%TO.P,510ohm1,1*%
%TO.N,/12V_Bus*%
X61070000Y-30816465D03*
%TO.P,510ohm1,2*%
%TO.N,Net-(D1-A)*%
X61070000Y-38436465D03*
%TD*%
D12*
%TO.P,C10,1*%
%TO.N,/6V_A*%
X93570000Y-33544086D03*
D13*
%TO.P,C10,2*%
%TO.N,GND*%
X93570000Y-36044086D03*
%TD*%
%TO.P,R5,1*%
%TO.N,Net-(J6-GPIO24{slash}SDIO_DAT0)*%
X98190000Y-77626465D03*
%TO.P,R5,2*%
%TO.N,GND*%
X90570000Y-77626465D03*
%TD*%
D11*
%TO.P,J3,1,Pin_1*%
%TO.N,GND*%
X114420000Y-47431465D03*
%TO.P,J3,2,Pin_2*%
%TO.N,/6V_A*%
X114420000Y-44891465D03*
%TO.P,J3,3,Pin_3*%
%TO.N,/6V_B*%
X114420000Y-42321465D03*
%TO.P,J3,4,Pin_4*%
%TO.N,GND*%
X114420000Y-39811465D03*
%TD*%
%TO.P,J9,1,M+*%
%TO.N,Net-(Driver_Board1-BO1)*%
X28570000Y-75016465D03*
%TO.P,J9,2,M-*%
%TO.N,Net-(Driver_Board1-BO2)*%
X28570000Y-77556465D03*
%TO.P,J9,3,GND*%
%TO.N,GND*%
X28570000Y-80126465D03*
%TD*%
%TO.P,J11,1,M+*%
%TO.N,Net-(Driver_Board2-BO1)*%
X28570000Y-94626465D03*
%TO.P,J11,2,M-*%
%TO.N,Net-(Driver_Board2-BO2)*%
X28570000Y-97166465D03*
%TO.P,J11,3,GND*%
%TO.N,GND*%
X28570000Y-99736465D03*
%TD*%
D14*
%TO.P,C4,1*%
%TO.N,/5V_Bus*%
X34070000Y-48626465D03*
D15*
%TO.P,C4,2*%
%TO.N,GND*%
X34070000Y-50626465D03*
%TD*%
D22*
%TO.P,J21,1,VCC*%
%TO.N,/5V_Bus*%
X85000000Y-78620000D03*
D23*
%TO.P,J21,2,GND*%
%TO.N,GND*%
X85000000Y-76080000D03*
%TO.P,J21,3,TXD*%
%TO.N,Net-(J21-TXD)*%
X85000000Y-73540000D03*
%TO.P,J21,4,RXD*%
%TO.N,Net-(J21-RXD)*%
X85000000Y-71000000D03*
%TO.P,J21,5,PPS*%
%TO.N,Net-(J21-PPS)*%
X85000000Y-68460000D03*
%TD*%
D14*
%TO.P,C5,1*%
%TO.N,/6V_B*%
X98570000Y-46626465D03*
D15*
%TO.P,C5,2*%
%TO.N,GND*%
X98570000Y-48626465D03*
%TD*%
D22*
%TO.P,J4,1,Pin_1*%
%TO.N,/5V_Bus*%
X85070000Y-105706465D03*
D23*
%TO.P,J4,2,Pin_2*%
%TO.N,GND*%
X85070000Y-103166465D03*
%TO.P,J4,3,Pin_3*%
%TO.N,Net-(J4-Pin_3)*%
X85070000Y-100626465D03*
%TO.P,J4,4,Pin_4*%
%TO.N,Net-(J4-Pin_4)*%
X85070000Y-98086465D03*
%TO.P,J4,5,Pin_5*%
%TO.N,unconnected-(J4-Pin_5-Pad5)*%
X85070000Y-95546465D03*
%TO.P,J4,6,Pin_6*%
%TO.N,unconnected-(J4-Pin_6-Pad6)*%
X85070000Y-93006465D03*
%TO.P,J4,7,Pin_7*%
%TO.N,GND*%
X85070000Y-90466465D03*
%TO.P,J4,8,Pin_8*%
%TO.N,Net-(J4-Pin_8)*%
X85070000Y-87926465D03*
%TD*%
D13*
%TO.P,150ohm1,1*%
%TO.N,/5V_Bus*%
X24570000Y-48316465D03*
%TO.P,150ohm1,2*%
%TO.N,Net-(D2-A)*%
X24570000Y-55936465D03*
%TD*%
D22*
%TO.P,J14,1,C1*%
%TO.N,Net-(J14-C1)*%
X112260000Y-77626465D03*
D23*
%TO.P,J14,2,C2*%
%TO.N,Net-(J14-C2)*%
X112260000Y-80166465D03*
%TO.P,J14,3,VCC*%
%TO.N,/5V_Bus*%
X112260000Y-82706465D03*
%TD*%
D22*
%TO.P,J17,1,VCC*%
%TO.N,/5V_Bus*%
X85500000Y-63040000D03*
D23*
%TO.P,J17,2,Trig*%
%TO.N,Net-(J17-Trig)*%
X85500000Y-60500000D03*
%TO.P,J17,3,Echo*%
%TO.N,Net-(J17-Echo)*%
X85500000Y-57960000D03*
%TO.P,J17,4,GND*%
%TO.N,GND*%
X85500000Y-55420000D03*
%TD*%
D13*
%TO.P,R16,1*%
%TO.N,Net-(J6-GPIO27{slash}SDIO_DAT3)*%
X100450000Y-94626465D03*
%TO.P,R16,2*%
%TO.N,Net-(J15-C2)*%
X108070000Y-94626465D03*
%TD*%
%TO.P,10k1,1*%
%TO.N,Net-(A1-GPIO26_ADC0)*%
X69070000Y-38371267D03*
%TO.P,10k1,2*%
%TO.N,GND*%
X69070000Y-30751267D03*
%TD*%
D24*
%TO.P,D3,1,A*%
%TO.N,Net-(D3-A)*%
X80270000Y-47626465D03*
D10*
%TO.P,D3,2,K*%
%TO.N,GND*%
X77730000Y-47626465D03*
%TD*%
D12*
%TO.P,C3,1*%
%TO.N,/5V_Bus*%
X40570000Y-48126465D03*
D13*
%TO.P,C3,2*%
%TO.N,GND*%
X40570000Y-50626465D03*
%TD*%
D22*
%TO.P,J15,1,C1*%
%TO.N,Net-(J15-C1)*%
X111760000Y-90626465D03*
D23*
%TO.P,J15,2,C2*%
%TO.N,Net-(J15-C2)*%
X111760000Y-93166465D03*
%TO.P,J15,3,VCC*%
%TO.N,/5V_Bus*%
X111760000Y-95706465D03*
%TD*%
D12*
%TO.P,C9,1*%
%TO.N,/6V_B*%
X91570000Y-46401465D03*
D13*
%TO.P,C9,2*%
%TO.N,GND*%
X91570000Y-48901465D03*
%TD*%
%TO.P,R2,1*%
%TO.N,Net-(J6-GPCLK2{slash}GPIO06)*%
X98380000Y-59626465D03*
%TO.P,R2,2*%
%TO.N,GND*%
X90760000Y-59626465D03*
%TD*%
D11*
%TO.P,J10,1,M+*%
%TO.N,Net-(Driver_Board2-AO1)*%
X28570000Y-85516465D03*
%TO.P,J10,2,M-*%
%TO.N,Net-(Driver_Board2-AO2)*%
X28570000Y-88056465D03*
%TO.P,J10,3,GND*%
%TO.N,GND*%
X28570000Y-90626465D03*
%TD*%
D15*
%TO.P,F1,1*%
%TO.N,/5V_Bus*%
X46070000Y-49166465D03*
%TO.P,F1,2*%
%TO.N,Net-(J20-Vout)*%
X51070000Y-49166465D03*
%TD*%
D25*
%TO.P,J1,1,12V_raw*%
%TO.N,/12V_Bus*%
X27220000Y-34378800D03*
D26*
%TO.P,J1,2,GND*%
%TO.N,GND*%
X27220000Y-41578800D03*
%TD*%
D22*
%TO.P,J13,1,C1*%
%TO.N,Net-(J13-C1)*%
X112570000Y-66586465D03*
D23*
%TO.P,J13,2,C2*%
%TO.N,Net-(J13-C2)*%
X112570000Y-69126465D03*
%TO.P,J13,3,VCC*%
%TO.N,/5V_Bus*%
X112570000Y-71666465D03*
%TD*%
D13*
%TO.P,R7,1*%
%TO.N,Net-(J6-GPIO22{slash}SDIO_CLK)*%
X97880000Y-90626465D03*
%TO.P,R7,2*%
%TO.N,GND*%
X90260000Y-90626465D03*
%TD*%
%TO.P,R3,1*%
%TO.N,Net-(J6-GPCLK1{slash}GPIO05)*%
X98380000Y-66626465D03*
%TO.P,R3,2*%
%TO.N,GND*%
X90760000Y-66626465D03*
%TD*%
D22*
%TO.P,J7,1,Pin_1*%
%TO.N,Net-(A1-GPIO15)*%
X53290000Y-110126465D03*
D23*
%TO.P,J7,2,Pin_2*%
%TO.N,Net-(A1-GPIO14)*%
X55830000Y-110126465D03*
%TO.P,J7,3,Pin_3*%
%TO.N,Net-(A1-GPIO13)*%
X58370000Y-110126465D03*
%TO.P,J7,4,Pin_4*%
%TO.N,Net-(A1-GPIO20)*%
X60910000Y-110126465D03*
%TO.P,J7,5,Pin_5*%
%TO.N,Net-(A1-GPIO19)*%
X63450000Y-110126465D03*
%TO.P,J7,6,Pin_6*%
%TO.N,Net-(A1-GPIO18)*%
X65990000Y-110126465D03*
%TO.P,J7,7,Pin_7*%
%TO.N,Net-(A1-GPIO17)*%
X68530000Y-110126465D03*
%TO.P,J7,8,Pin_8*%
%TO.N,Net-(A1-GPIO16)*%
X71070000Y-110126465D03*
%TD*%
D27*
%TO.P,J6,1,3V3*%
%TO.N,unconnected-(J6-3V3-Pad1)*%
X77570000Y-105446465D03*
D28*
%TO.P,J6,2,5V*%
%TO.N,/5V_Bus*%
X80110000Y-105446465D03*
%TO.P,J6,3,SDA_I2C1/GPIO02*%
%TO.N,Net-(J4-Pin_4)*%
X77570000Y-102906465D03*
%TO.P,J6,4,5V*%
%TO.N,/5V_Bus*%
X80110000Y-102906465D03*
%TO.P,J6,5,SCL_I2C1/GPIO03*%
%TO.N,Net-(J4-Pin_3)*%
X77570000Y-100366465D03*
%TO.P,J6,6,GND*%
%TO.N,GND*%
X80110000Y-100366465D03*
%TO.P,J6,7,GPCLK0/GPIO04*%
%TO.N,Net-(J4-Pin_8)*%
X77570000Y-97826465D03*
%TO.P,J6,8,GPIO14/UART_TXD*%
%TO.N,Net-(A1-GPIO21)*%
X80110000Y-97826465D03*
%TO.P,J6,9,GND*%
%TO.N,GND*%
X77570000Y-95286465D03*
%TO.P,J6,10,GPIO15/UART_RXD*%
%TO.N,Net-(A1-GPIO22)*%
X80110000Y-95286465D03*
%TO.P,J6,11,GPIO17/SPI1_~{CE1}*%
%TO.N,unconnected-(J6-GPIO17{slash}SPI1_~{CE1}-Pad11)*%
X77570000Y-92746465D03*
%TO.P,J6,12,GPIO18/SPI1_~{CE0}/PCM_CLK/PWM0*%
%TO.N,unconnected-(J6-GPIO18{slash}SPI1_~{CE0}{slash}PCM_CLK{slash}PWM0-Pad12)*%
X80110000Y-92746465D03*
%TO.P,J6,13,GPIO27/SDIO_DAT3*%
%TO.N,Net-(J6-GPIO27{slash}SDIO_DAT3)*%
X77570000Y-90206465D03*
%TO.P,J6,14,GND*%
%TO.N,GND*%
X80110000Y-90206465D03*
%TO.P,J6,15,GPIO22/SDIO_CLK*%
%TO.N,Net-(J6-GPIO22{slash}SDIO_CLK)*%
X77570000Y-87666465D03*
%TO.P,J6,16,GPIO23/SDIO_CMD*%
%TO.N,Net-(J6-GPIO23{slash}SDIO_CMD)*%
X80110000Y-87666465D03*
%TO.P,J6,17,3V3*%
%TO.N,unconnected-(J6-3V3-Pad1)_1*%
X77570000Y-85126465D03*
%TO.P,J6,18,GPIO24/SDIO_DAT0*%
%TO.N,Net-(J6-GPIO24{slash}SDIO_DAT0)*%
X80110000Y-85126465D03*
%TO.P,J6,19,MOSI_SPI0/GPIO10*%
%TO.N,unconnected-(J6-MOSI_SPI0{slash}GPIO10-Pad19)*%
X77570000Y-82586465D03*
%TO.P,J6,20,GND*%
%TO.N,GND*%
X80110000Y-82586465D03*
%TO.P,J6,21,MISO_SPI0/GPIO09*%
%TO.N,Net-(J21-PPS)*%
X77570000Y-80046465D03*
%TO.P,J6,22,GPIO25/SDIO_DAT1*%
%TO.N,Net-(J6-GPIO25{slash}SDIO_DAT1)*%
X80110000Y-80046465D03*
%TO.P,J6,23,SCLK_SPI0/GPIO11*%
%TO.N,unconnected-(J6-SCLK_SPI0{slash}GPIO11-Pad23)*%
X77570000Y-77506465D03*
%TO.P,J6,24,~{CE0}_SPI0/GPIO08*%
%TO.N,Net-(J21-RXD)*%
X80110000Y-77506465D03*
%TO.P,J6,25,GND*%
%TO.N,GND*%
X77570000Y-74966465D03*
%TO.P,J6,26,~{CE1}_SPI0/GPIO07*%
%TO.N,Net-(J21-TXD)*%
X80110000Y-74966465D03*
%TO.P,J6,27,ID_SD_I2C0/GPIO00*%
%TO.N,unconnected-(J6-ID_SD_I2C0{slash}GPIO00-Pad27)*%
X77570000Y-72426465D03*
%TO.P,J6,28,ID_SC_I2C0/GPIO01*%
%TO.N,unconnected-(J6-ID_SC_I2C0{slash}GPIO01-Pad28)*%
X80110000Y-72426465D03*
%TO.P,J6,29,GPCLK1/GPIO05*%
%TO.N,Net-(J6-GPCLK1{slash}GPIO05)*%
X77570000Y-69886465D03*
%TO.P,J6,30,GND*%
%TO.N,GND*%
X80110000Y-69886465D03*
%TO.P,J6,31,GPCLK2/GPIO06*%
%TO.N,Net-(J6-GPCLK2{slash}GPIO06)*%
X77570000Y-67346465D03*
%TO.P,J6,32,GPIO12/PWM0*%
%TO.N,Net-(J17-Echo)*%
X80110000Y-67346465D03*
%TO.P,J6,33,GPIO13/PWM1*%
%TO.N,Net-(J17-Trig)*%
X77570000Y-64806465D03*
%TO.P,J6,34,GND*%
%TO.N,GND*%
X80110000Y-64806465D03*
%TO.P,J6,35,GPIO19/SPI1_MISO/PCM_FS*%
%TO.N,unconnected-(J6-GPIO19{slash}SPI1_MISO{slash}PCM_FS-Pad35)*%
X77570000Y-62266465D03*
%TO.P,J6,36,GPIO16/SPI1_~{CE2}*%
%TO.N,unconnected-(J6-GPIO16{slash}SPI1_~{CE2}-Pad36)*%
X80110000Y-62266465D03*
%TO.P,J6,37,GPIO26/SDIO_DAT2*%
%TO.N,Net-(J6-GPIO26{slash}SDIO_DAT2)*%
X77570000Y-59726465D03*
%TO.P,J6,38,GPIO20/SPI1_MOSI/PCM_DIN/PWM1*%
%TO.N,unconnected-(J6-GPIO20{slash}SPI1_MOSI{slash}PCM_DIN{slash}PWM1-Pad38)*%
X80110000Y-59726465D03*
%TO.P,J6,39,GND*%
%TO.N,GND*%
X77570000Y-57186465D03*
%TO.P,J6,40,GPIO21/SPI1_SCLK/PCM_DOUT*%
%TO.N,unconnected-(J6-GPIO21{slash}SPI1_SCLK{slash}PCM_DOUT-Pad40)*%
X80110000Y-57186465D03*
%TD*%
D13*
%TO.P,R1,1*%
%TO.N,Net-(J6-GPIO26{slash}SDIO_DAT2)*%
X98380000Y-56000413D03*
%TO.P,R1,2*%
%TO.N,GND*%
X90760000Y-56000413D03*
%TD*%
D14*
%TO.P,C8,1*%
%TO.N,/6V_A*%
X106570000Y-32726465D03*
D15*
%TO.P,C8,2*%
%TO.N,GND*%
X106570000Y-34726465D03*
%TD*%
D14*
%TO.P,C7,1*%
%TO.N,/6V_B*%
X104570000Y-46626465D03*
D15*
%TO.P,C7,2*%
%TO.N,GND*%
X104570000Y-48626465D03*
%TD*%
D13*
%TO.P,R14,1*%
%TO.N,Net-(J6-GPCLK2{slash}GPIO06)*%
X101450000Y-59626465D03*
%TO.P,R14,2*%
%TO.N,Net-(J12-C2)*%
X109070000Y-59626465D03*
%TD*%
%TO.P,R6,1*%
%TO.N,Net-(J6-GPIO23{slash}SDIO_CMD)*%
X98380000Y-81626465D03*
%TO.P,R6,2*%
%TO.N,GND*%
X90760000Y-81626465D03*
%TD*%
%TO.P,33k1,1*%
%TO.N,Net-(A1-GPIO26_ADC0)*%
X65070000Y-38436465D03*
%TO.P,33k1,2*%
%TO.N,/12V_Bus*%
X65070000Y-30816465D03*
%TD*%
%TO.P,180ohm1,1*%
%TO.N,/6V_B*%
X84570000Y-42816465D03*
%TO.P,180ohm1,2*%
%TO.N,Net-(D3-A)*%
X84570000Y-50436465D03*
%TD*%
%TO.P,R8,1*%
%TO.N,Net-(J6-GPIO27{slash}SDIO_DAT3)*%
X97880000Y-94576465D03*
%TO.P,R8,2*%
%TO.N,GND*%
X90260000Y-94576465D03*
%TD*%
%TO.P,R15,1*%
%TO.N,Net-(J6-GPIO22{slash}SDIO_CLK)*%
X100450000Y-90576465D03*
%TO.P,R15,2*%
%TO.N,Net-(J15-C1)*%
X108070000Y-90576465D03*
%TD*%
D10*
%TO.P,Driver_Board2,1,GND*%
%TO.N,GND*%
X34920000Y-78976465D03*
%TO.P,Driver_Board2,2,VCC*%
%TO.N,/5V_Bus*%
X34920000Y-81516465D03*
%TO.P,Driver_Board2,3,AO1*%
%TO.N,Net-(Driver_Board2-AO1)*%
X34920000Y-84056465D03*
%TO.P,Driver_Board2,4,AO2*%
%TO.N,Net-(Driver_Board2-AO2)*%
X34920000Y-86596465D03*
%TO.P,Driver_Board2,5,BO2*%
%TO.N,Net-(Driver_Board2-BO2)*%
X34920000Y-89136465D03*
%TO.P,Driver_Board2,6,BO1*%
%TO.N,Net-(Driver_Board2-BO1)*%
X34920000Y-91676465D03*
%TO.P,Driver_Board2,7,VMOT*%
%TO.N,/12V_Bus*%
X34920000Y-94216465D03*
%TO.P,Driver_Board2,8,GND*%
%TO.N,GND*%
X34920000Y-96756465D03*
%TO.P,Driver_Board2,9,PWMA*%
%TO.N,Net-(A1-GPIO7)*%
X47620000Y-78976465D03*
%TO.P,Driver_Board2,10,AIN2*%
%TO.N,Net-(A1-GPIO8)*%
X47620000Y-81516465D03*
%TO.P,Driver_Board2,11,AIN1*%
%TO.N,Net-(A1-GPIO9)*%
X47620000Y-84056465D03*
%TO.P,Driver_Board2,12,STBY*%
%TO.N,Net-(A1-GPIO3)*%
X47620000Y-86596465D03*
%TO.P,Driver_Board2,13,BIN1*%
%TO.N,Net-(A1-GPIO10)*%
X47620000Y-89136465D03*
%TO.P,Driver_Board2,14,BIN2*%
%TO.N,Net-(A1-GPIO11)*%
X47620000Y-91676465D03*
%TO.P,Driver_Board2,15,PWMB*%
%TO.N,Net-(A1-GPIO12)*%
X47620000Y-94216465D03*
%TO.P,Driver_Board2,16,GND*%
%TO.N,GND*%
X47620000Y-96756465D03*
%TD*%
D14*
%TO.P,C6,1*%
%TO.N,/6V_A*%
X100500000Y-32753866D03*
D15*
%TO.P,C6,2*%
%TO.N,GND*%
X100500000Y-34753866D03*
%TD*%
D13*
%TO.P,R4,1*%
%TO.N,Net-(J6-GPIO25{slash}SDIO_DAT1)*%
X98380000Y-70626465D03*
%TO.P,R4,2*%
%TO.N,GND*%
X90760000Y-70626465D03*
%TD*%
%TO.P,R13,1*%
%TO.N,Net-(J6-GPIO26{slash}SDIO_DAT2)*%
X101450000Y-56036465D03*
%TO.P,R13,2*%
%TO.N,Net-(J12-C1)*%
X109070000Y-56036465D03*
%TD*%
%TO.P,R12,1*%
%TO.N,Net-(J6-GPIO23{slash}SDIO_CMD)*%
X100950000Y-81626465D03*
%TO.P,R12,2*%
%TO.N,Net-(J14-C2)*%
X108570000Y-81626465D03*
%TD*%
D24*
%TO.P,D4,1,A*%
%TO.N,Net-(D4-A)*%
X76770000Y-39626465D03*
D10*
%TO.P,D4,2,K*%
%TO.N,GND*%
X74230000Y-39626465D03*
%TD*%
D22*
%TO.P,J12,1,C1*%
%TO.N,Net-(J12-C1)*%
X112760000Y-56086465D03*
D23*
%TO.P,J12,2,C2*%
%TO.N,Net-(J12-C2)*%
X112760000Y-58626465D03*
%TO.P,J12,3,VCC*%
%TO.N,/5V_Bus*%
X112760000Y-61166465D03*
%TD*%
D13*
%TO.P,R10,1*%
%TO.N,Net-(J6-GPIO25{slash}SDIO_DAT1)*%
X101260000Y-70586465D03*
%TO.P,R10,2*%
%TO.N,Net-(J13-C2)*%
X108880000Y-70586465D03*
%TD*%
D11*
%TO.P,J16,1,Pin_1*%
%TO.N,GND*%
X83180000Y-33126465D03*
%TO.P,J16,2,Pin_2*%
%TO.N,/6V_A*%
X80640000Y-33126465D03*
%TO.P,J16,3,Pin_3*%
%TO.N,/6V_B*%
X78070000Y-33126465D03*
%TO.P,J16,4,Pin_4*%
%TO.N,GND*%
X75560000Y-33126465D03*
%TD*%
D13*
%TO.P,R11,1*%
%TO.N,Net-(J6-GPIO24{slash}SDIO_DAT0)*%
X100950000Y-77576465D03*
%TO.P,R11,2*%
%TO.N,Net-(J14-C1)*%
X108570000Y-77576465D03*
%TD*%
D22*
%TO.P,J5,1,VCC*%
%TO.N,/5V_Bus*%
X83897665Y-110126465D03*
D23*
%TO.P,J5,2,GND*%
%TO.N,GND*%
X81357665Y-110126465D03*
%TO.P,J5,3,SDA*%
%TO.N,Net-(J4-Pin_4)*%
X78817665Y-110126465D03*
%TO.P,J5,4,SCL*%
%TO.N,Net-(J4-Pin_3)*%
X76277665Y-110126465D03*
%TD*%
D24*
%TO.P,D2,1,A*%
%TO.N,Net-(D2-A)*%
X25070000Y-59000000D03*
D10*
%TO.P,D2,2,K*%
%TO.N,GND*%
X25070000Y-61540000D03*
%TD*%
D24*
%TO.P,D1,1,A*%
%TO.N,Net-(D1-A)*%
X57270000Y-39626465D03*
D10*
%TO.P,D1,2,K*%
%TO.N,GND*%
X54730000Y-39626465D03*
%TD*%
D13*
%TO.P,180ohm2,1*%
%TO.N,/6V_A*%
X87880000Y-38901465D03*
%TO.P,180ohm2,2*%
%TO.N,Net-(D4-A)*%
X80260000Y-38901465D03*
%TD*%
%TO.P,R9,1*%
%TO.N,Net-(J6-GPCLK1{slash}GPIO05)*%
X101260000Y-66536465D03*
%TO.P,R9,2*%
%TO.N,Net-(J13-C1)*%
X108880000Y-66536465D03*
%TD*%
D29*
%TO.N,/12V_Bus*%
X46070000Y-53626465D02*
X40720000Y-58976465D01*
X51000000Y-53626465D02*
X46070000Y-53626465D01*
X40720000Y-58976465D02*
X40720000Y-65378800D01*
X53570000Y-51056465D02*
X51000000Y-53626465D01*
X53570000Y-46126465D02*
X53570000Y-51056465D01*
X50570000Y-43126465D02*
X53570000Y-46126465D01*
X42600000Y-43126465D02*
X50570000Y-43126465D01*
D30*
%TO.N,Net-(D1-A)*%
X57270000Y-39626465D02*
X58460000Y-38436465D01*
X61070000Y-38436465D02*
X58460000Y-38436465D01*
D31*
%TO.N,GND*%
X27870000Y-70166465D02*
X27830000Y-70126465D01*
D30*
%TO.N,Net-(A1-GPIO26_ADC0)*%
X66000000Y-39506465D02*
X66000000Y-74442335D01*
D31*
X69004802Y-38436465D02*
X69070000Y-38371267D01*
D30*
X65070000Y-38436465D02*
X67070000Y-38436465D01*
X66000000Y-74442335D02*
X70666465Y-79108800D01*
X67070000Y-38436465D02*
X69004802Y-38436465D01*
X67070000Y-38436465D02*
X66000000Y-39506465D01*
%TO.N,/12V_Bus*%
X59520000Y-30816465D02*
X61070000Y-30816465D01*
X57110000Y-33226465D02*
X59520000Y-30816465D01*
D32*
X42610000Y-39166465D02*
X44650000Y-37126465D01*
D29*
X34920000Y-94216465D02*
X40720000Y-88416465D01*
D32*
X44650000Y-37126465D02*
X52373535Y-37126465D01*
D33*
X30444934Y-31153866D02*
X35070000Y-31153866D01*
X54570000Y-30696465D02*
X54500000Y-30626465D01*
X57110000Y-30836465D02*
X57110000Y-33226465D01*
D30*
X61070000Y-30816465D02*
X65070000Y-30816465D01*
D33*
X54570000Y-33226465D02*
X54570000Y-30696465D01*
X56900000Y-30626465D02*
X57110000Y-30836465D01*
X35070000Y-31153866D02*
X35597401Y-30626465D01*
D31*
X40720000Y-65378800D02*
X40720000Y-65476465D01*
D33*
X54500000Y-30626465D02*
X56900000Y-30626465D01*
X41500000Y-30626465D02*
X47570000Y-30626465D01*
X41406148Y-30720317D02*
X41500000Y-30626465D01*
D29*
X40720000Y-65476465D02*
X34720000Y-71476465D01*
D32*
X54570000Y-34930000D02*
X54570000Y-33226465D01*
X42610000Y-41126465D02*
X42610000Y-39166465D01*
D29*
X40720000Y-88416465D02*
X40720000Y-65378800D01*
X42610000Y-41126465D02*
X42610000Y-43116465D01*
D33*
X47570000Y-30626465D02*
X54500000Y-30626465D01*
D32*
X52373535Y-37126465D02*
X54570000Y-34930000D01*
D33*
X41406148Y-32626465D02*
X41406148Y-30720317D01*
X35597401Y-30626465D02*
X41500000Y-30626465D01*
D31*
X27220000Y-34378800D02*
X29720000Y-31878800D01*
D33*
X27220000Y-34378800D02*
X30444934Y-31153866D01*
D34*
%TO.N,/5V_Bus*%
X34720000Y-58776465D02*
X31871166Y-58776465D01*
D32*
X70666465Y-58788800D02*
X69232335Y-58788800D01*
D31*
X115990000Y-82706465D02*
X116070000Y-82626465D01*
D32*
X69232335Y-58788800D02*
X68504130Y-58060595D01*
X23220000Y-100946465D02*
X23220000Y-81276465D01*
X85070000Y-108061795D02*
X85070000Y-105706465D01*
D31*
X74570000Y-59626465D02*
X74471767Y-59528233D01*
D32*
X43110000Y-49166465D02*
X42070000Y-48126465D01*
X42070000Y-48126465D02*
X40570000Y-48126465D01*
D35*
X83960000Y-63040000D02*
X80952807Y-66047193D01*
D31*
X34070000Y-48626465D02*
X33570000Y-48626465D01*
X116030000Y-71666465D02*
X116070000Y-71626465D01*
D32*
X34570000Y-48126465D02*
X34070000Y-48626465D01*
X82500000Y-114226465D02*
X51500000Y-114226465D01*
X29070000Y-55975299D02*
X31871166Y-58776465D01*
D34*
X34920000Y-81516465D02*
X33810000Y-82626465D01*
D35*
X80952807Y-66047193D02*
X76117193Y-66047193D01*
D36*
X83897665Y-112828800D02*
X82500000Y-114226465D01*
D32*
X83897665Y-110126465D02*
X83897665Y-109234130D01*
X27521167Y-63126465D02*
X23220000Y-67427632D01*
D31*
X116030000Y-61166465D02*
X116070000Y-61126465D01*
D30*
X116070000Y-82626465D02*
X116070000Y-94126465D01*
D32*
X83897665Y-110126465D02*
X83897665Y-112500000D01*
X29070000Y-48316465D02*
X24570000Y-48316465D01*
X69070000Y-27000000D02*
X71570000Y-29500000D01*
D31*
X85000000Y-78620000D02*
X84846404Y-78773596D01*
X75570000Y-81327106D02*
X74570000Y-80327106D01*
D32*
X21570000Y-46626465D02*
X21570000Y-30430000D01*
D34*
X24570000Y-82626465D02*
X23220000Y-81276465D01*
D30*
X116070000Y-94126465D02*
X114490000Y-95706465D01*
X114490000Y-95706465D02*
X111760000Y-95706465D01*
D31*
X79422869Y-78773596D02*
X78838395Y-79358070D01*
D30*
X113570000Y-52126465D02*
X73570000Y-52126465D01*
X116070000Y-61126465D02*
X116070000Y-71626465D01*
D35*
X85500000Y-63040000D02*
X83960000Y-63040000D01*
D32*
X26000000Y-103726465D02*
X23220000Y-100946465D01*
D31*
X78838395Y-80742267D02*
X78253556Y-81327106D01*
D32*
X21570000Y-30430000D02*
X25000000Y-27000000D01*
X46070000Y-49166465D02*
X43110000Y-49166465D01*
X83897665Y-109234130D02*
X85070000Y-108061795D01*
X23260000Y-48316465D02*
X21570000Y-46626465D01*
X33260000Y-48316465D02*
X29070000Y-48316465D01*
D31*
X78253556Y-81327106D02*
X75570000Y-81327106D01*
D32*
X68504130Y-58060595D02*
X68504130Y-53192335D01*
X83897665Y-109234130D02*
X81542335Y-106878800D01*
D36*
X83897665Y-112500000D02*
X83897665Y-112828800D01*
D30*
X116070000Y-54626465D02*
X116070000Y-61126465D01*
X112260000Y-82706465D02*
X115990000Y-82706465D01*
D31*
X73732335Y-58788800D02*
X70666465Y-58788800D01*
D32*
X81542335Y-106878800D02*
X80110000Y-105446465D01*
D30*
X113570000Y-52126465D02*
X116070000Y-54626465D01*
D32*
X23220000Y-67427632D02*
X23220000Y-81276465D01*
X25000000Y-27000000D02*
X69000000Y-27000000D01*
D31*
X78838395Y-79358070D02*
X78838395Y-80742267D01*
D32*
X29070000Y-48316465D02*
X29070000Y-55975299D01*
X80110000Y-102906465D02*
X80110000Y-105446465D01*
D30*
X116070000Y-71626465D02*
X116070000Y-82626465D01*
D31*
X84846404Y-78773596D02*
X79422869Y-78773596D01*
D30*
X112760000Y-61166465D02*
X116030000Y-61166465D01*
D32*
X33570000Y-48626465D02*
X33260000Y-48316465D01*
D31*
X74570000Y-64500000D02*
X74570000Y-59626465D01*
X74570000Y-80327106D02*
X74570000Y-64500000D01*
X27521167Y-63126464D02*
X27521167Y-63126465D01*
D32*
X68504130Y-53192335D02*
X71570000Y-50126465D01*
X41000000Y-103726465D02*
X26000000Y-103726465D01*
D31*
X74471767Y-59528233D02*
X73732335Y-58788800D01*
D32*
X71570000Y-29500000D02*
X71570000Y-50126465D01*
D34*
X33810000Y-82626465D02*
X24570000Y-82626465D01*
D32*
X31871166Y-58776465D02*
X27521167Y-63126464D01*
X51500000Y-114226465D02*
X41000000Y-103726465D01*
D36*
X69000000Y-27000000D02*
X69070000Y-27000000D01*
D32*
X24570000Y-48316465D02*
X23260000Y-48316465D01*
D35*
X76117193Y-66047193D02*
X74570000Y-64500000D01*
D30*
X112570000Y-71666465D02*
X116030000Y-71666465D01*
D32*
X40570000Y-48126465D02*
X34570000Y-48126465D01*
D30*
X73570000Y-52126465D02*
X71570000Y-50126465D01*
%TO.N,Net-(D2-A)*%
X24570000Y-55936465D02*
X24570000Y-58356465D01*
D31*
X24570000Y-58356465D02*
X25070000Y-58856465D01*
D30*
%TO.N,Net-(D3-A)*%
X84570000Y-50436465D02*
X82880000Y-50436465D01*
X82880000Y-50436465D02*
X80070000Y-47626465D01*
D33*
%TO.N,/6V_B*%
X91500000Y-42321465D02*
X85065000Y-42321465D01*
X98500000Y-42321465D02*
X91500000Y-42321465D01*
X85065000Y-42321465D02*
X84570000Y-42816465D01*
X104500000Y-42321465D02*
X98500000Y-42321465D01*
D30*
X91570000Y-42391465D02*
X91500000Y-42321465D01*
X104570000Y-42391465D02*
X104500000Y-42321465D01*
X98570000Y-42391465D02*
X98500000Y-42321465D01*
D33*
X114420000Y-42321465D02*
X104500000Y-42321465D01*
X84570000Y-36000000D02*
X84570000Y-42816465D01*
D30*
X104570000Y-46626465D02*
X104570000Y-42391465D01*
X91570000Y-46401465D02*
X91570000Y-42391465D01*
D33*
X78070000Y-36000000D02*
X84570000Y-36000000D01*
D31*
X91795000Y-46626465D02*
X91570000Y-46401465D01*
D33*
X78070000Y-33126465D02*
X78070000Y-36000000D01*
D30*
X98570000Y-46626465D02*
X98570000Y-42391465D01*
%TO.N,/6V_A*%
X93570000Y-29796465D02*
X93500000Y-29726465D01*
X93570000Y-33544086D02*
X93570000Y-29796465D01*
X93570000Y-33544086D02*
X93237379Y-33544086D01*
D33*
X100500000Y-29726465D02*
X93500000Y-29726465D01*
X80651519Y-29726465D02*
X80647729Y-29722675D01*
D30*
X106570000Y-32726465D02*
X106570000Y-29796465D01*
D33*
X93500000Y-29726465D02*
X80651519Y-29726465D01*
X106500000Y-29726465D02*
X100500000Y-29726465D01*
D30*
X106570000Y-29796465D02*
X106500000Y-29726465D01*
D33*
X80647729Y-29722675D02*
X80640000Y-29730404D01*
X118000000Y-29726465D02*
X106500000Y-29726465D01*
X114420000Y-44891465D02*
X116835000Y-44891465D01*
D31*
X87922621Y-38944086D02*
X87880000Y-38901465D01*
D30*
X100500000Y-32753866D02*
X100500000Y-29726465D01*
D33*
X118000000Y-43726465D02*
X118000000Y-29726465D01*
D30*
X93237379Y-33544086D02*
X87880000Y-38901465D01*
D33*
X116835000Y-44891465D02*
X118000000Y-43726465D01*
X80640000Y-29730404D02*
X80640000Y-33126465D01*
D30*
%TO.N,Net-(D4-A)*%
X77565000Y-38901465D02*
X76840000Y-39626465D01*
X80260000Y-38901465D02*
X77565000Y-38901465D01*
D31*
%TO.N,Net-(A1-GPIO3)*%
X52886465Y-66408800D02*
X49972335Y-66408800D01*
X45276465Y-66000000D02*
X47420000Y-63856465D01*
X47620000Y-86596465D02*
X45276465Y-84252930D01*
X45276465Y-84252930D02*
X45276465Y-66000000D01*
X49972335Y-66408800D02*
X47420000Y-63856465D01*
%TO.N,Net-(A1-GPIO20)*%
X60910000Y-101565265D02*
X70666465Y-91808800D01*
X60910000Y-110126465D02*
X60910000Y-101565265D01*
X70682517Y-91792748D02*
X70666465Y-91808800D01*
%TO.N,Net-(A1-GPIO1)*%
X47432335Y-58788800D02*
X47420000Y-58776465D01*
X52886465Y-58788800D02*
X47432335Y-58788800D01*
%TO.N,Net-(A1-GPIO5)*%
X52886465Y-71488800D02*
X49972335Y-71488800D01*
X49972335Y-71488800D02*
X47420000Y-68936465D01*
%TO.N,Net-(A1-GPIO11)*%
X47620000Y-91676465D02*
X52754130Y-91676465D01*
X52754130Y-91676465D02*
X52886465Y-91808800D01*
%TO.N,Net-(A1-GPIO6)*%
X49776465Y-73832930D02*
X47420000Y-71476465D01*
X51466465Y-76568800D02*
X49776465Y-74878800D01*
X49776465Y-74878800D02*
X49776465Y-73832930D01*
X52886465Y-76568800D02*
X51466465Y-76568800D01*
%TO.N,Net-(A1-GPIO9)*%
X47620000Y-84056465D02*
X52754130Y-84056465D01*
X52754130Y-84056465D02*
X52886465Y-84188800D01*
%TO.N,Net-(A1-GPIO10)*%
X47620000Y-89136465D02*
X52754130Y-89136465D01*
X52754130Y-89136465D02*
X52886465Y-89268800D01*
%TO.N,Net-(A1-GPIO12)*%
X52754130Y-94216465D02*
X52886465Y-94348800D01*
X47620000Y-94216465D02*
X52754130Y-94216465D01*
%TO.N,Net-(A1-GPIO17)*%
X70666465Y-101968800D02*
X71466465Y-101968800D01*
X68530000Y-110126465D02*
X68530000Y-104105265D01*
X68530000Y-104105265D02*
X70666465Y-101968800D01*
%TO.N,Net-(A1-GPIO15)*%
X52886465Y-109722930D02*
X53290000Y-110126465D01*
X52886465Y-104508800D02*
X52886465Y-109722930D01*
%TO.N,Net-(A1-GPIO14)*%
X55830000Y-104912335D02*
X55830000Y-110126465D01*
X52886465Y-101968800D02*
X55830000Y-104912335D01*
X50727665Y-101968800D02*
X52886465Y-101968800D01*
%TO.N,Net-(A1-GPIO22)*%
X80110000Y-94637965D02*
X79488195Y-94016160D01*
X71466465Y-84188800D02*
X70666465Y-84188800D01*
X76459695Y-94016160D02*
X76070000Y-93626465D01*
X80110000Y-95286465D02*
X80110000Y-94637965D01*
X76070000Y-88792335D02*
X71466465Y-84188800D01*
X79488195Y-94016160D02*
X76459695Y-94016160D01*
X76070000Y-93626465D02*
X76070000Y-88792335D01*
%TO.N,Net-(A1-3V3_EN)*%
X69290000Y-68948800D02*
X70666465Y-68948800D01*
X68220000Y-67878800D02*
X69290000Y-68948800D01*
X68220000Y-64878800D02*
X68220000Y-67878800D01*
X69230000Y-63868800D02*
X68220000Y-64878800D01*
X70666465Y-63868800D02*
X69230000Y-63868800D01*
%TO.N,Net-(A1-GPIO2)*%
X52886465Y-63868800D02*
X49972335Y-63868800D01*
X49972335Y-63868800D02*
X47420000Y-61316465D01*
%TO.N,Net-(A1-GPIO4)*%
X47420000Y-66396465D02*
X49972335Y-68948800D01*
X49972335Y-68948800D02*
X52886465Y-68948800D01*
%TO.N,Net-(A1-GPIO16)*%
X71070000Y-104912335D02*
X70666465Y-104508800D01*
X71070000Y-110126465D02*
X71070000Y-104912335D01*
X71110000Y-104952335D02*
X70666465Y-104508800D01*
%TO.N,Net-(A1-GPIO0)*%
X52886465Y-56248800D02*
X47432335Y-56248800D01*
X47432335Y-56248800D02*
X47420000Y-56236465D01*
%TO.N,Net-(A1-GPIO21)*%
X76098232Y-99096934D02*
X75070000Y-98068702D01*
X78839531Y-99096934D02*
X76098232Y-99096934D01*
X75070000Y-90626465D02*
X73712335Y-89268800D01*
X80110000Y-97826465D02*
X78839531Y-99096934D01*
X73712335Y-89268800D02*
X70666465Y-89268800D01*
X75070000Y-98068702D02*
X75070000Y-90626465D01*
%TO.N,Net-(A1-GPIO8)*%
X47620000Y-81516465D02*
X52754130Y-81516465D01*
X52754130Y-81516465D02*
X52886465Y-81648800D01*
%TO.N,Net-(A1-GPIO7)*%
X47620000Y-78976465D02*
X52754130Y-78976465D01*
X52754130Y-78976465D02*
X52886465Y-79108800D01*
%TO.N,Net-(A1-GPIO19)*%
X70682517Y-94332748D02*
X70666465Y-94348800D01*
X63450000Y-101565265D02*
X70666465Y-94348800D01*
X63450000Y-110126465D02*
X63450000Y-101565265D01*
%TO.N,Net-(A1-GPIO18)*%
X70682517Y-96872748D02*
X70666465Y-96888800D01*
X65990000Y-101565265D02*
X70666465Y-96888800D01*
X65990000Y-110126465D02*
X65990000Y-101565265D01*
%TO.N,Net-(A1-GPIO13)*%
X52886465Y-96888800D02*
X58370000Y-102372335D01*
X58370000Y-102372335D02*
X58370000Y-110126465D01*
X50807665Y-96888800D02*
X52886465Y-96888800D01*
%TO.N,Net-(J4-Pin_3)*%
X82009606Y-98066859D02*
X83257457Y-96819008D01*
X82009606Y-98090124D02*
X81070000Y-99029730D01*
X76277665Y-110126465D02*
X75570000Y-109418800D01*
X86262543Y-96819008D02*
X87070000Y-97626465D01*
X87070000Y-97626465D02*
X87070000Y-98626465D01*
X78394374Y-100366465D02*
X79731109Y-99029730D01*
X75570000Y-102366465D02*
X77570000Y-100366465D01*
X75570000Y-109418800D02*
X75570000Y-102366465D01*
X83257457Y-96819008D02*
X86262543Y-96819008D01*
X87070000Y-98626465D02*
X85070000Y-100626465D01*
X79731109Y-99029730D02*
X81070000Y-99029730D01*
X77570000Y-100366465D02*
X78394374Y-100366465D01*
X82009606Y-98066859D02*
X82009606Y-98090124D01*
%TO.N,Net-(J4-Pin_8)*%
X85070000Y-87926465D02*
X85070000Y-88430000D01*
X78829606Y-96566859D02*
X77570000Y-97826465D01*
X81570000Y-96566859D02*
X78829606Y-96566859D01*
X85070000Y-88430000D02*
X82500000Y-91000000D01*
X82500000Y-95636859D02*
X81570000Y-96566859D01*
X82500000Y-91000000D02*
X82500000Y-95636859D01*
%TO.N,Net-(J4-Pin_4)*%
X85070000Y-98086465D02*
X85000000Y-98086465D01*
X78836514Y-101639951D02*
X77570000Y-102906465D01*
X85000000Y-98086465D02*
X81446514Y-101639951D01*
X78817665Y-104154130D02*
X77570000Y-102906465D01*
X78817665Y-110126465D02*
X78817665Y-104154130D01*
X81446514Y-101639951D02*
X78836514Y-101639951D01*
%TO.N,Net-(J6-GPIO24{slash}SDIO_DAT0)*%
X98190000Y-77626465D02*
X95873535Y-77626465D01*
X95873535Y-77626465D02*
X93500000Y-80000000D01*
X87500000Y-81500000D02*
X83736465Y-81500000D01*
X100950000Y-77576465D02*
X98240000Y-77576465D01*
X89000000Y-80000000D02*
X87500000Y-81500000D01*
X93500000Y-80000000D02*
X89000000Y-80000000D01*
X83736465Y-81500000D02*
X80110000Y-85126465D01*
X98240000Y-77576465D02*
X98190000Y-77626465D01*
%TO.N,Net-(J6-GPIO22{slash}SDIO_CLK)*%
X78674609Y-88769464D02*
X78678930Y-88769464D01*
X84598233Y-84500000D02*
X91753535Y-84500000D01*
X81570000Y-88626465D02*
X81570000Y-87528233D01*
X78865308Y-88955842D02*
X81240623Y-88955842D01*
X81570000Y-87528233D02*
X84598233Y-84500000D01*
X97930000Y-90576465D02*
X97880000Y-90626465D01*
X77570000Y-87666465D02*
X78583124Y-88679589D01*
X100450000Y-90576465D02*
X97930000Y-90576465D01*
X78584734Y-88679589D02*
X78674609Y-88769464D01*
X91753535Y-84500000D02*
X97880000Y-90626465D01*
X78583124Y-88679589D02*
X78584734Y-88679589D01*
X81240623Y-88955842D02*
X81570000Y-88626465D01*
X78678930Y-88769464D02*
X78865308Y-88955842D01*
%TO.N,Net-(J6-GPIO23{slash}SDIO_CMD)*%
X80110001Y-87666465D02*
X80110000Y-87666465D01*
X98380000Y-81626465D02*
X96506465Y-83500000D01*
X84276466Y-83500000D02*
X80110001Y-87666465D01*
X100950000Y-81626465D02*
X98380000Y-81626465D01*
X96506465Y-83500000D02*
X84276466Y-83500000D01*
%TO.N,Net-(J6-GPIO25{slash}SDIO_DAT1)*%
X98380000Y-70626465D02*
X93070000Y-70626465D01*
X93070000Y-70626465D02*
X87570000Y-76126465D01*
X101260000Y-70586465D02*
X98420000Y-70586465D01*
X80563535Y-80500000D02*
X80110000Y-80046465D01*
X87570000Y-79430000D02*
X86500000Y-80500000D01*
X98420000Y-70586465D02*
X98380000Y-70626465D01*
X86500000Y-80500000D02*
X80563535Y-80500000D01*
X87570000Y-76126465D02*
X87570000Y-79430000D01*
%TO.N,Net-(J21-TXD)*%
X85000000Y-73540000D02*
X83573535Y-74966465D01*
X83573535Y-74966465D02*
X80110000Y-74966465D01*
%TO.N,Net-(J6-GPIO26{slash}SDIO_DAT2)*%
X75570000Y-57726465D02*
X77570000Y-59726465D01*
X101450000Y-56036465D02*
X98416052Y-56036465D01*
X77570000Y-53126465D02*
X75570000Y-55126465D01*
X98380000Y-56000413D02*
X95506052Y-53126465D01*
X75570000Y-55126465D02*
X75570000Y-57726465D01*
X98416052Y-56036465D02*
X98380000Y-56000413D01*
X95506052Y-53126465D02*
X77570000Y-53126465D01*
%TO.N,Net-(J17-Echo)*%
X87473925Y-59933925D02*
X87473925Y-63838173D01*
X85500000Y-57960000D02*
X87473925Y-59933925D01*
X87473925Y-63838173D02*
X86500000Y-64812098D01*
X83513508Y-64812098D02*
X80979141Y-67346465D01*
X80979141Y-67346465D02*
X80110000Y-67346465D01*
X86500000Y-64812098D02*
X83513508Y-64812098D01*
%TO.N,Net-(J6-GPCLK2{slash}GPIO06)*%
X77570000Y-67346465D02*
X78611768Y-68388232D01*
X90500000Y-63000000D02*
X95000000Y-63000000D01*
X80611768Y-68388232D02*
X83500000Y-65500000D01*
X83500000Y-65500000D02*
X88000000Y-65500000D01*
X101450000Y-59626465D02*
X98380000Y-59626465D01*
X96070000Y-61936465D02*
X98380000Y-59626465D01*
X78611768Y-68388232D02*
X80611768Y-68388232D01*
X88000000Y-65500000D02*
X90500000Y-63000000D01*
X96063535Y-61936465D02*
X96070000Y-61936465D01*
X95000000Y-63000000D02*
X96063535Y-61936465D01*
%TO.N,Net-(J6-GPIO27{slash}SDIO_DAT3)*%
X81747587Y-90752413D02*
X80998221Y-91501779D01*
X80998221Y-91501779D02*
X78865314Y-91501779D01*
X78865314Y-91501779D02*
X77570000Y-90206465D01*
X81747587Y-90298211D02*
X81747587Y-90752413D01*
X97880000Y-94576465D02*
X89303535Y-86000000D01*
X81996210Y-90049588D02*
X81747587Y-90298211D01*
X89303535Y-86000000D02*
X84196465Y-86000000D01*
X97930000Y-94626465D02*
X97880000Y-94576465D01*
X82570000Y-89479588D02*
X82000000Y-90049588D01*
X82000000Y-90049588D02*
X81996210Y-90049588D01*
X84196465Y-86000000D02*
X82570000Y-87626465D01*
X82570000Y-87626465D02*
X82570000Y-89479588D01*
X100450000Y-94626465D02*
X97930000Y-94626465D01*
%TO.N,Net-(J17-Trig)*%
X85500000Y-60500000D02*
X82500000Y-63500000D01*
X82500000Y-63500000D02*
X78876465Y-63500000D01*
X78876465Y-63500000D02*
X77570000Y-64806465D01*
%TO.N,Net-(J6-GPCLK1{slash}GPIO05)*%
X96443535Y-64500000D02*
X90000000Y-64500000D01*
X98380000Y-66436465D02*
X96443535Y-64500000D01*
X98470000Y-66536465D02*
X98380000Y-66626465D01*
X90000000Y-64500000D02*
X88401768Y-66098232D01*
X81381877Y-71118123D02*
X78801658Y-71118123D01*
X101260000Y-66536465D02*
X98470000Y-66536465D01*
X83598232Y-66098232D02*
X82848232Y-66848232D01*
X82848232Y-69651768D02*
X81381877Y-71118123D01*
X78801658Y-71118123D02*
X77570000Y-69886465D01*
X88401768Y-66098232D02*
X83598232Y-66098232D01*
X98380000Y-66626465D02*
X98380000Y-66436465D01*
X82848232Y-66848232D02*
X82848232Y-69651768D01*
%TO.N,Net-(J21-RXD)*%
X80581874Y-77034591D02*
X80110000Y-77506465D01*
X82377190Y-73622810D02*
X79500000Y-73622810D01*
X78854938Y-76354938D02*
X80006465Y-77506465D01*
X79500000Y-73622810D02*
X78854938Y-74267872D01*
X78854938Y-74267872D02*
X78854938Y-76354938D01*
X80006465Y-77506465D02*
X80110000Y-77506465D01*
X85000000Y-71000000D02*
X82377190Y-73622810D01*
%TO.N,Net-(J21-PPS)*%
X81952182Y-71507818D02*
X85000000Y-68460000D01*
X77000000Y-71507818D02*
X81952182Y-71507818D01*
X76034740Y-78511205D02*
X76034740Y-72473078D01*
X77570000Y-80046465D02*
X76034740Y-78511205D01*
X76034740Y-72473078D02*
X77000000Y-71507818D01*
%TO.N,Net-(J12-C2)*%
X112760000Y-58626465D02*
X111760000Y-59626465D01*
X111760000Y-59626465D02*
X109070000Y-59626465D01*
%TO.N,Net-(J12-C1)*%
X109120000Y-56086465D02*
X109070000Y-56036465D01*
X112760000Y-56086465D02*
X109120000Y-56086465D01*
%TO.N,Net-(J13-C2)*%
X112070000Y-69126465D02*
X110610000Y-70586465D01*
X110610000Y-70586465D02*
X108880000Y-70586465D01*
X112570000Y-69126465D02*
X112070000Y-69126465D01*
%TO.N,Net-(J13-C1)*%
X108930000Y-66586465D02*
X108880000Y-66536465D01*
X112570000Y-66586465D02*
X108930000Y-66586465D01*
%TO.N,Net-(J14-C2)*%
X110800000Y-81626465D02*
X108570000Y-81626465D01*
X112260000Y-80166465D02*
X110800000Y-81626465D01*
%TO.N,Net-(J14-C1)*%
X108620000Y-77626465D02*
X108570000Y-77576465D01*
X112260000Y-77626465D02*
X108620000Y-77626465D01*
%TO.N,Net-(J15-C2)*%
X110300000Y-94626465D02*
X108070000Y-94626465D01*
X111760000Y-93166465D02*
X110300000Y-94626465D01*
%TO.N,Net-(J15-C1)*%
X108120000Y-90626465D02*
X108070000Y-90576465D01*
X111760000Y-90626465D02*
X108120000Y-90626465D01*
D32*
%TO.N,Net-(J20-Vout)*%
X37070000Y-45126465D02*
X47030000Y-45126465D01*
X34990000Y-43046465D02*
X37070000Y-45126465D01*
X47030000Y-45126465D02*
X51070000Y-49166465D01*
X34990000Y-41126465D02*
X34990000Y-43046465D01*
D30*
%TO.N,Net-(Driver_Board1-AO1)*%
X34720000Y-61316465D02*
X32840000Y-61316465D01*
X32840000Y-61316465D02*
X28570000Y-65586465D01*
%TO.N,Net-(Driver_Board1-BO1)*%
X28570000Y-75016465D02*
X34650000Y-68936465D01*
D31*
X34650000Y-68936465D02*
X34720000Y-68936465D01*
D30*
%TO.N,Net-(Driver_Board1-BO2)*%
X34720000Y-66396465D02*
X30570000Y-70546465D01*
X30570000Y-70546465D02*
X30570000Y-71626465D01*
X26480888Y-75467353D02*
X28570000Y-77556465D01*
X26480888Y-72856687D02*
X26480888Y-75467353D01*
X29339778Y-72856687D02*
X26480888Y-72856687D01*
X30570000Y-71626465D02*
X29339778Y-72856687D01*
D31*
X34140000Y-66396465D02*
X34720000Y-66396465D01*
D30*
%TO.N,Net-(Driver_Board1-AO2)*%
X32840000Y-63856465D02*
X34720000Y-63856465D01*
X28570000Y-68126465D02*
X32840000Y-63856465D01*
%TO.N,Net-(Driver_Board2-AO2)*%
X31903535Y-86596465D02*
X30443535Y-88056465D01*
X34920000Y-86596465D02*
X31903535Y-86596465D01*
X30443535Y-88056465D02*
X28570000Y-88056465D01*
%TO.N,Net-(Driver_Board2-BO2)*%
X34920000Y-89136465D02*
X33598553Y-89136465D01*
X26712939Y-92787061D02*
X26500000Y-93000000D01*
X26500000Y-93000000D02*
X26500000Y-97067692D01*
X26598773Y-97166465D02*
X28570000Y-97166465D01*
X33598553Y-89136465D02*
X29947957Y-92787061D01*
X29947957Y-92787061D02*
X26712939Y-92787061D01*
X26500000Y-97067692D02*
X26598773Y-97166465D01*
D31*
%TO.N,Net-(Driver_Board2-AO1)*%
X34594373Y-83730838D02*
X34920000Y-84056465D01*
D30*
X34920000Y-84056465D02*
X30030000Y-84056465D01*
X30030000Y-84056465D02*
X28570000Y-85516465D01*
%TO.N,Net-(Driver_Board2-BO1)*%
X32500000Y-94500000D02*
X32500000Y-93000000D01*
X33823535Y-91676465D02*
X34920000Y-91676465D01*
X32500000Y-93000000D02*
X33823535Y-91676465D01*
X28570000Y-94626465D02*
X32373535Y-94626465D01*
X32500000Y-94500000D02*
X32373535Y-94626465D01*
%TD*%
M02*
