M48
; DRILL file {KiCad 9.0.3} date 2025-08-05T09:32:16-0500
; FORMAT={-:-/ absolute / metric / decimal}
; #@! TF.CreationDate,2025-08-05T09:32:16-05:00
; #@! TF.GenerationSoftware,Kicad,Pcbnew,9.0.3
; #@! TF.FileFunction,Plated,1,2,PTH
FMAT,2
METRIC
; #@! TA.AperFunction,Plated,PTH,ComponentDrill
T1C0.600
; #@! TA.AperFunction,Plated,PTH,ComponentDrill
T2C0.800
; #@! TA.AperFunction,Plated,PTH,ComponentDrill
T3C0.900
; #@! TA.AperFunction,Plated,PTH,ComponentDrill
T4C1.000
; #@! TA.AperFunction,Plated,PTH,ComponentDrill
T5C1.020
; #@! TA.AperFunction,Plated,PTH,ComponentDrill
T6C1.070
; #@! TA.AperFunction,Plated,PTH,ComponentDrill
T7C1.300
; #@! TA.AperFunction,Plated,PTH,ComponentDrill
T8C4.500
%
G90
G05
T1
X34.07Y-48.626
X34.07Y-50.626
X35.07Y-31.154
X35.07Y-33.154
X47.57Y-30.626
X47.57Y-32.626
X98.57Y-46.626
X98.57Y-48.626
X100.5Y-32.754
X100.5Y-34.754
X104.57Y-46.626
X104.57Y-48.626
X106.57Y-32.726
X106.57Y-34.726
T2
X24.57Y-48.316
X24.57Y-55.936
X40.57Y-48.126
X40.57Y-50.626
X41.406Y-32.626
X41.406Y-35.126
X61.07Y-30.816
X61.07Y-38.436
X65.07Y-30.816
X65.07Y-38.436
X69.07Y-30.751
X69.07Y-38.371
X80.26Y-38.901
X84.57Y-42.816
X84.57Y-50.436
X87.88Y-38.901
X90.26Y-90.626
X90.26Y-94.576
X90.57Y-77.626
X90.76Y-56.0
X90.76Y-59.626
X90.76Y-66.626
X90.76Y-70.626
X90.76Y-81.626
X91.57Y-46.401
X91.57Y-48.901
X93.57Y-33.544
X93.57Y-36.044
X97.88Y-90.626
X97.88Y-94.576
X98.19Y-77.626
X98.38Y-56.0
X98.38Y-59.626
X98.38Y-66.626
X98.38Y-70.626
X98.38Y-81.626
X100.45Y-90.576
X100.45Y-94.626
X100.95Y-77.576
X100.95Y-81.626
X101.26Y-66.536
X101.26Y-70.586
X101.45Y-56.036
X101.45Y-59.626
X108.07Y-90.576
X108.07Y-94.626
X108.57Y-77.576
X108.57Y-81.626
X108.88Y-66.536
X108.88Y-70.586
X109.07Y-56.036
X109.07Y-59.626
T3
X25.07Y-59.0
X25.07Y-61.54
X46.07Y-49.166
X51.07Y-49.166
X54.73Y-39.626
X57.27Y-39.626
X74.23Y-39.626
X76.77Y-39.626
X77.73Y-47.626
X80.27Y-47.626
T4
X34.99Y-41.126
X37.53Y-41.126
X40.07Y-41.126
X42.61Y-41.126
X45.15Y-41.126
X52.886Y-56.249
X52.886Y-58.789
X52.886Y-61.329
X52.886Y-63.869
X52.886Y-66.409
X52.886Y-68.949
X52.886Y-71.489
X52.886Y-74.029
X52.886Y-76.569
X52.886Y-79.109
X52.886Y-81.649
X52.886Y-84.189
X52.886Y-86.729
X52.886Y-89.269
X52.886Y-91.809
X52.886Y-94.349
X52.886Y-96.889
X52.886Y-99.429
X52.886Y-101.969
X52.886Y-104.509
X53.29Y-110.126
X55.83Y-110.126
X58.37Y-110.126
X60.91Y-110.126
X63.45Y-110.126
X65.99Y-110.126
X68.53Y-110.126
X70.666Y-56.249
X70.666Y-58.789
X70.666Y-61.329
X70.666Y-63.869
X70.666Y-66.409
X70.666Y-68.949
X70.666Y-71.489
X70.666Y-74.029
X70.666Y-76.569
X70.666Y-79.109
X70.666Y-81.649
X70.666Y-84.189
X70.666Y-86.729
X70.666Y-89.269
X70.666Y-91.809
X70.666Y-94.349
X70.666Y-96.889
X70.666Y-99.429
X70.666Y-101.969
X70.666Y-104.509
X71.07Y-110.126
X76.278Y-110.126
X78.818Y-110.126
X81.358Y-110.126
X83.898Y-110.126
X85.0Y-68.46
X85.0Y-71.0
X85.0Y-73.54
X85.0Y-76.08
X85.0Y-78.62
X85.07Y-87.926
X85.07Y-90.466
X85.07Y-93.006
X85.07Y-95.546
X85.07Y-98.086
X85.07Y-100.626
X85.07Y-103.166
X85.07Y-105.706
X85.5Y-55.42
X85.5Y-57.96
X85.5Y-60.5
X85.5Y-63.04
X111.76Y-90.626
X111.76Y-93.166
X111.76Y-95.706
X112.26Y-77.626
X112.26Y-80.166
X112.26Y-82.706
X112.57Y-66.586
X112.57Y-69.126
X112.57Y-71.666
X112.76Y-56.086
X112.76Y-58.626
X112.76Y-61.166
T5
X34.72Y-56.236
X34.72Y-58.776
X34.72Y-61.316
X34.72Y-63.856
X34.72Y-66.396
X34.72Y-68.936
X34.72Y-71.476
X34.72Y-74.016
X34.92Y-78.976
X34.92Y-81.516
X34.92Y-84.056
X34.92Y-86.596
X34.92Y-89.136
X34.92Y-91.676
X34.92Y-94.216
X34.92Y-96.756
X47.42Y-56.236
X47.42Y-58.776
X47.42Y-61.316
X47.42Y-63.856
X47.42Y-66.396
X47.42Y-68.936
X47.42Y-71.476
X47.42Y-74.016
X47.62Y-78.976
X47.62Y-81.516
X47.62Y-84.056
X47.62Y-86.596
X47.62Y-89.136
X47.62Y-91.676
X47.62Y-94.216
X47.62Y-96.756
T6
X77.57Y-57.186
X77.57Y-59.726
X77.57Y-62.266
X77.57Y-64.806
X77.57Y-67.346
X77.57Y-69.886
X77.57Y-72.426
X77.57Y-74.966
X77.57Y-77.506
X77.57Y-80.046
X77.57Y-82.586
X77.57Y-85.126
X77.57Y-87.666
X77.57Y-90.206
X77.57Y-92.746
X77.57Y-95.286
X77.57Y-97.826
X77.57Y-100.366
X77.57Y-102.906
X77.57Y-105.446
X80.11Y-57.186
X80.11Y-59.726
X80.11Y-62.266
X80.11Y-64.806
X80.11Y-67.346
X80.11Y-69.886
X80.11Y-72.426
X80.11Y-74.966
X80.11Y-77.506
X80.11Y-80.046
X80.11Y-82.586
X80.11Y-85.126
X80.11Y-87.666
X80.11Y-90.206
X80.11Y-92.746
X80.11Y-95.286
X80.11Y-97.826
X80.11Y-100.366
X80.11Y-102.906
X80.11Y-105.446
T7
X28.57Y-65.586
X28.57Y-68.126
X28.57Y-70.696
X28.57Y-75.016
X28.57Y-77.556
X28.57Y-80.126
X28.57Y-85.516
X28.57Y-88.056
X28.57Y-90.626
X28.57Y-94.626
X28.57Y-97.166
X28.57Y-99.736
X52.0Y-33.226
X54.57Y-33.226
X57.11Y-33.226
X75.56Y-33.126
X78.07Y-33.126
X80.64Y-33.126
X83.18Y-33.126
X114.42Y-39.811
X114.42Y-42.321
X114.42Y-44.891
X114.42Y-47.431
T8
X27.22Y-34.379
X27.22Y-41.579
M30
