%TF.GenerationSoftware,KiCad,Pcbnew,9.0.3*%
%TF.CreationDate,2025-08-03T14:05:26-05:00*%
%TF.ProjectId,Power Distribution PCB Schematic,506f7765-7220-4446-9973-747269627574,rev?*%
%TF.SameCoordinates,Original*%
%TF.FileFunction,Soldermask,Bot*%
%TF.FilePolarity,Negative*%
%FSLAX46Y46*%
G04 Gerber Fmt 4.6, Leading zero omitted, Abs format (unit mm)*
G04 Created by KiCad (PCBNEW 9.0.3) date 2025-08-03 14:05:26*
%MOMM*%
%LPD*%
G01*
G04 APERTURE LIST*
G04 APERTURE END LIST*
G36*
X81604407Y-109313066D02*
G01*
X81758352Y-109376832D01*
X81896899Y-109469406D01*
X82014724Y-109587231D01*
X82107298Y-109725778D01*
X82171064Y-109879723D01*
X82203572Y-110043150D01*
X82203572Y-110209780D01*
X82171064Y-110373207D01*
X82107298Y-110527152D01*
X82014724Y-110665699D01*
X81896899Y-110783524D01*
X81758352Y-110876098D01*
X81604407Y-110939864D01*
X81440980Y-110972372D01*
X81274350Y-110972372D01*
X81110923Y-110939864D01*
X80956978Y-110876098D01*
X80818431Y-110783524D01*
X80700606Y-110665699D01*
X80608032Y-110527152D01*
X80544266Y-110373207D01*
X80511758Y-110209780D01*
X80511758Y-110043150D01*
X80544266Y-109879723D01*
X80608032Y-109725778D01*
X80700606Y-109587231D01*
X80818431Y-109469406D01*
X80956978Y-109376832D01*
X81110923Y-109313066D01*
X81274350Y-109280558D01*
X81440980Y-109280558D01*
X81604407Y-109313066D01*
G37*
G36*
X85316742Y-102353066D02*
G01*
X85470687Y-102416832D01*
X85609234Y-102509406D01*
X85727059Y-102627231D01*
X85819633Y-102765778D01*
X85883399Y-102919723D01*
X85915907Y-103083150D01*
X85915907Y-103249780D01*
X85883399Y-103413207D01*
X85819633Y-103567152D01*
X85727059Y-103705699D01*
X85609234Y-103823524D01*
X85470687Y-103916098D01*
X85316742Y-103979864D01*
X85153315Y-104012372D01*
X84986685Y-104012372D01*
X84823258Y-103979864D01*
X84669313Y-103916098D01*
X84530766Y-103823524D01*
X84412941Y-103705699D01*
X84320367Y-103567152D01*
X84256601Y-103413207D01*
X84224093Y-103249780D01*
X84224093Y-103083150D01*
X84256601Y-102919723D01*
X84320367Y-102765778D01*
X84412941Y-102627231D01*
X84530766Y-102509406D01*
X84669313Y-102416832D01*
X84823258Y-102353066D01*
X84986685Y-102320558D01*
X85153315Y-102320558D01*
X85316742Y-102353066D01*
G37*
G36*
X80372562Y-99500912D02*
G01*
X80536378Y-99568767D01*
X80683809Y-99667277D01*
X80809188Y-99792656D01*
X80907698Y-99940087D01*
X80975553Y-100103903D01*
X81010145Y-100277808D01*
X81010145Y-100455122D01*
X80975553Y-100629027D01*
X80907698Y-100792843D01*
X80809188Y-100940274D01*
X80683809Y-101065653D01*
X80536378Y-101164163D01*
X80372562Y-101232018D01*
X80198657Y-101266610D01*
X80021343Y-101266610D01*
X79847438Y-101232018D01*
X79683622Y-101164163D01*
X79536191Y-101065653D01*
X79410812Y-100940274D01*
X79312302Y-100792843D01*
X79244447Y-100629027D01*
X79209855Y-100455122D01*
X79209855Y-100277808D01*
X79244447Y-100103903D01*
X79312302Y-99940087D01*
X79410812Y-99792656D01*
X79536191Y-99667277D01*
X79683622Y-99568767D01*
X79847438Y-99500912D01*
X80021343Y-99466320D01*
X80198657Y-99466320D01*
X80372562Y-99500912D01*
G37*
G36*
X28860285Y-98779525D02*
G01*
X29041397Y-98854544D01*
X29204393Y-98963455D01*
X29343010Y-99102072D01*
X29451921Y-99265068D01*
X29526940Y-99446180D01*
X29565185Y-99638448D01*
X29565185Y-99834482D01*
X29526940Y-100026750D01*
X29451921Y-100207862D01*
X29343010Y-100370858D01*
X29204393Y-100509475D01*
X29041397Y-100618386D01*
X28860285Y-100693405D01*
X28668017Y-100731650D01*
X28471983Y-100731650D01*
X28279715Y-100693405D01*
X28098603Y-100618386D01*
X27935607Y-100509475D01*
X27796990Y-100370858D01*
X27688079Y-100207862D01*
X27613060Y-100026750D01*
X27574815Y-99834482D01*
X27574815Y-99638448D01*
X27613060Y-99446180D01*
X27688079Y-99265068D01*
X27796990Y-99102072D01*
X27935607Y-98963455D01*
X28098603Y-98854544D01*
X28279715Y-98779525D01*
X28471983Y-98741280D01*
X28668017Y-98741280D01*
X28860285Y-98779525D01*
G37*
G36*
X53490001Y-98625264D02*
G01*
X53492380Y-98627643D01*
X53520480Y-98627643D01*
X53525483Y-98627643D01*
X53527396Y-98628024D01*
X53532014Y-98629937D01*
X53532019Y-98629938D01*
X53594869Y-98655971D01*
X53594873Y-98655973D01*
X53599492Y-98657887D01*
X53601115Y-98658970D01*
X53656295Y-98714150D01*
X53657378Y-98715773D01*
X53659291Y-98720392D01*
X53659293Y-98720395D01*
X53668045Y-98741525D01*
X53687241Y-98787869D01*
X53687622Y-98789782D01*
X53687622Y-98822885D01*
X53690001Y-98825264D01*
X53691465Y-98828800D01*
X53691465Y-100028800D01*
X53690001Y-100032336D01*
X53687622Y-100034715D01*
X53687622Y-100067818D01*
X53687241Y-100069731D01*
X53657378Y-100141827D01*
X53656295Y-100143450D01*
X53601115Y-100198630D01*
X53599492Y-100199713D01*
X53594869Y-100201627D01*
X53594869Y-100201628D01*
X53563444Y-100214644D01*
X53527396Y-100229576D01*
X53525483Y-100229957D01*
X53492380Y-100229957D01*
X53490001Y-100232336D01*
X53486465Y-100233800D01*
X53476361Y-100233800D01*
X52896569Y-100233800D01*
X52886465Y-100233800D01*
X52882929Y-100232336D01*
X52881940Y-100229948D01*
X52810541Y-100229948D01*
X52808051Y-100229948D01*
X52807076Y-100229852D01*
X52653262Y-100199256D01*
X52652324Y-100198971D01*
X52650024Y-100198018D01*
X52650013Y-100198015D01*
X52509747Y-100139915D01*
X52509735Y-100139909D01*
X52507435Y-100138956D01*
X52506570Y-100138494D01*
X52454801Y-100103903D01*
X52378250Y-100052754D01*
X52378246Y-100052751D01*
X52376172Y-100051365D01*
X52375414Y-100050744D01*
X52264521Y-99939851D01*
X52263900Y-99939093D01*
X52262514Y-99937019D01*
X52262510Y-99937014D01*
X52178160Y-99810774D01*
X52178159Y-99810772D01*
X52176771Y-99808695D01*
X52176309Y-99807830D01*
X52175357Y-99805532D01*
X52175349Y-99805517D01*
X52117249Y-99665251D01*
X52117243Y-99665234D01*
X52116294Y-99662941D01*
X52116009Y-99662003D01*
X52109392Y-99628742D01*
X52085898Y-99510630D01*
X52085897Y-99510624D01*
X52085413Y-99508189D01*
X52085317Y-99507214D01*
X52085317Y-99350386D01*
X52085413Y-99349411D01*
X52085897Y-99346976D01*
X52085898Y-99346969D01*
X52115522Y-99198045D01*
X52115522Y-99198044D01*
X52116009Y-99195597D01*
X52116294Y-99194659D01*
X52117242Y-99192368D01*
X52117249Y-99192348D01*
X52175349Y-99052082D01*
X52175359Y-99052062D01*
X52176309Y-99049770D01*
X52176771Y-99048905D01*
X52178156Y-99046831D01*
X52178160Y-99046825D01*
X52262510Y-98920585D01*
X52262518Y-98920574D01*
X52263900Y-98918507D01*
X52264521Y-98917749D01*
X52266287Y-98915982D01*
X52266292Y-98915977D01*
X52373642Y-98808627D01*
X52373647Y-98808622D01*
X52375414Y-98806856D01*
X52376172Y-98806235D01*
X52378239Y-98804853D01*
X52378250Y-98804845D01*
X52504490Y-98720495D01*
X52504496Y-98720491D01*
X52506570Y-98719106D01*
X52507435Y-98718644D01*
X52509727Y-98717694D01*
X52509747Y-98717684D01*
X52650013Y-98659584D01*
X52650033Y-98659577D01*
X52652324Y-98658629D01*
X52653262Y-98658344D01*
X52655710Y-98657857D01*
X52804634Y-98628233D01*
X52804641Y-98628232D01*
X52807076Y-98627748D01*
X52808051Y-98627652D01*
X52881940Y-98627652D01*
X52882929Y-98625264D01*
X52886465Y-98623800D01*
X53486465Y-98623800D01*
X53490001Y-98625264D01*
G37*
G36*
X70670001Y-98625264D02*
G01*
X70670990Y-98627652D01*
X70742389Y-98627652D01*
X70744879Y-98627652D01*
X70745854Y-98627748D01*
X70748289Y-98628232D01*
X70748295Y-98628233D01*
X70866407Y-98651727D01*
X70899668Y-98658344D01*
X70900606Y-98658629D01*
X70902899Y-98659578D01*
X70902916Y-98659584D01*
X71043182Y-98717684D01*
X71043197Y-98717692D01*
X71045495Y-98718644D01*
X71046360Y-98719106D01*
X71048437Y-98720494D01*
X71048439Y-98720495D01*
X71174679Y-98804845D01*
X71174684Y-98804849D01*
X71176758Y-98806235D01*
X71177516Y-98806856D01*
X71288409Y-98917749D01*
X71289030Y-98918507D01*
X71290416Y-98920581D01*
X71290419Y-98920585D01*
X71319190Y-98963645D01*
X71376159Y-99048905D01*
X71376621Y-99049770D01*
X71377574Y-99052070D01*
X71377580Y-99052082D01*
X71435680Y-99192348D01*
X71435683Y-99192359D01*
X71436636Y-99194659D01*
X71436921Y-99195597D01*
X71467517Y-99349411D01*
X71467613Y-99350386D01*
X71467613Y-99507214D01*
X71467517Y-99508189D01*
X71436921Y-99662003D01*
X71436636Y-99662941D01*
X71435682Y-99665243D01*
X71435680Y-99665251D01*
X71377580Y-99805517D01*
X71377575Y-99805524D01*
X71376621Y-99807830D01*
X71376159Y-99808695D01*
X71289030Y-99939093D01*
X71288409Y-99939851D01*
X71177516Y-100050744D01*
X71176758Y-100051365D01*
X71046360Y-100138494D01*
X71045495Y-100138956D01*
X71043189Y-100139910D01*
X71043182Y-100139915D01*
X70902916Y-100198015D01*
X70902908Y-100198017D01*
X70900606Y-100198971D01*
X70899668Y-100199256D01*
X70745854Y-100229852D01*
X70744879Y-100229948D01*
X70670990Y-100229948D01*
X70670001Y-100232336D01*
X70666465Y-100233800D01*
X70656361Y-100233800D01*
X70076569Y-100233800D01*
X70066465Y-100233800D01*
X70062929Y-100232336D01*
X70060550Y-100229957D01*
X70032450Y-100229957D01*
X70027447Y-100229957D01*
X70025534Y-100229576D01*
X70020911Y-100227661D01*
X70020910Y-100227661D01*
X69958060Y-100201628D01*
X69958057Y-100201626D01*
X69953438Y-100199713D01*
X69951815Y-100198630D01*
X69896635Y-100143450D01*
X69895552Y-100141827D01*
X69893638Y-100137208D01*
X69893636Y-100137204D01*
X69867603Y-100074354D01*
X69867602Y-100074349D01*
X69865689Y-100069731D01*
X69865308Y-100067818D01*
X69865308Y-100034715D01*
X69862929Y-100032336D01*
X69861465Y-100028800D01*
X69861465Y-98828800D01*
X69862929Y-98825264D01*
X69865308Y-98822885D01*
X69865308Y-98789782D01*
X69865689Y-98787869D01*
X69867601Y-98783251D01*
X69867603Y-98783245D01*
X69893636Y-98720395D01*
X69893639Y-98720389D01*
X69895552Y-98715773D01*
X69896635Y-98714150D01*
X69900171Y-98710613D01*
X69900174Y-98710610D01*
X69948275Y-98662509D01*
X69948278Y-98662506D01*
X69951815Y-98658970D01*
X69953438Y-98657887D01*
X69958054Y-98655974D01*
X69958060Y-98655971D01*
X70020910Y-98629938D01*
X70020916Y-98629936D01*
X70025534Y-98628024D01*
X70027447Y-98627643D01*
X70060550Y-98627643D01*
X70062929Y-98625264D01*
X70066465Y-98623800D01*
X70666465Y-98623800D01*
X70670001Y-98625264D01*
G37*
G36*
X35181256Y-95895219D02*
G01*
X35344257Y-95962736D01*
X35490954Y-96060756D01*
X35615709Y-96185511D01*
X35713729Y-96332208D01*
X35781246Y-96495209D01*
X35815666Y-96668250D01*
X35815666Y-96844680D01*
X35781246Y-97017721D01*
X35713729Y-97180722D01*
X35615709Y-97327419D01*
X35490954Y-97452174D01*
X35344257Y-97550194D01*
X35181256Y-97617711D01*
X35008215Y-97652131D01*
X34831785Y-97652131D01*
X34658744Y-97617711D01*
X34495743Y-97550194D01*
X34349046Y-97452174D01*
X34224291Y-97327419D01*
X34126271Y-97180722D01*
X34058754Y-97017721D01*
X34024334Y-96844680D01*
X34024334Y-96668250D01*
X34058754Y-96495209D01*
X34126271Y-96332208D01*
X34224291Y-96185511D01*
X34349046Y-96060756D01*
X34495743Y-95962736D01*
X34658744Y-95895219D01*
X34831785Y-95860799D01*
X35008215Y-95860799D01*
X35181256Y-95895219D01*
G37*
G36*
X47881256Y-95895219D02*
G01*
X48044257Y-95962736D01*
X48190954Y-96060756D01*
X48315709Y-96185511D01*
X48413729Y-96332208D01*
X48481246Y-96495209D01*
X48515666Y-96668250D01*
X48515666Y-96844680D01*
X48481246Y-97017721D01*
X48413729Y-97180722D01*
X48315709Y-97327419D01*
X48190954Y-97452174D01*
X48044257Y-97550194D01*
X47881256Y-97617711D01*
X47708215Y-97652131D01*
X47531785Y-97652131D01*
X47358744Y-97617711D01*
X47195743Y-97550194D01*
X47049046Y-97452174D01*
X46924291Y-97327419D01*
X46826271Y-97180722D01*
X46758754Y-97017721D01*
X46724334Y-96844680D01*
X46724334Y-96668250D01*
X46758754Y-96495209D01*
X46826271Y-96332208D01*
X46924291Y-96185511D01*
X47049046Y-96060756D01*
X47195743Y-95962736D01*
X47358744Y-95895219D01*
X47531785Y-95860799D01*
X47708215Y-95860799D01*
X47881256Y-95895219D01*
G37*
G36*
X77832562Y-94420912D02*
G01*
X77996378Y-94488767D01*
X78143809Y-94587277D01*
X78269188Y-94712656D01*
X78367698Y-94860087D01*
X78435553Y-95023903D01*
X78470145Y-95197808D01*
X78470145Y-95375122D01*
X78435553Y-95549027D01*
X78367698Y-95712843D01*
X78269188Y-95860274D01*
X78143809Y-95985653D01*
X77996378Y-96084163D01*
X77832562Y-96152018D01*
X77658657Y-96186610D01*
X77481343Y-96186610D01*
X77307438Y-96152018D01*
X77143622Y-96084163D01*
X76996191Y-95985653D01*
X76870812Y-95860274D01*
X76772302Y-95712843D01*
X76704447Y-95549027D01*
X76669855Y-95375122D01*
X76669855Y-95197808D01*
X76704447Y-95023903D01*
X76772302Y-94860087D01*
X76870812Y-94712656D01*
X76996191Y-94587277D01*
X77143622Y-94488767D01*
X77307438Y-94420912D01*
X77481343Y-94386320D01*
X77658657Y-94386320D01*
X77832562Y-94420912D01*
G37*
G36*
X90492228Y-93810913D02*
G01*
X90637117Y-93870928D01*
X90767515Y-93958057D01*
X90878408Y-94068950D01*
X90965537Y-94199348D01*
X91025552Y-94344237D01*
X91056148Y-94498051D01*
X91056148Y-94654879D01*
X91025552Y-94808693D01*
X90965537Y-94953582D01*
X90878408Y-95083980D01*
X90767515Y-95194873D01*
X90637117Y-95282002D01*
X90492228Y-95342017D01*
X90338414Y-95372613D01*
X90181586Y-95372613D01*
X90027772Y-95342017D01*
X89882883Y-95282002D01*
X89752485Y-95194873D01*
X89641592Y-95083980D01*
X89554463Y-94953582D01*
X89494448Y-94808693D01*
X89463852Y-94654879D01*
X89463852Y-94498051D01*
X89494448Y-94344237D01*
X89554463Y-94199348D01*
X89641592Y-94068950D01*
X89752485Y-93958057D01*
X89882883Y-93870928D01*
X90027772Y-93810913D01*
X90181586Y-93780317D01*
X90338414Y-93780317D01*
X90492228Y-93810913D01*
G37*
G36*
X28860285Y-89669525D02*
G01*
X29041397Y-89744544D01*
X29204393Y-89853455D01*
X29343010Y-89992072D01*
X29451921Y-90155068D01*
X29526940Y-90336180D01*
X29565185Y-90528448D01*
X29565185Y-90724482D01*
X29526940Y-90916750D01*
X29451921Y-91097862D01*
X29343010Y-91260858D01*
X29204393Y-91399475D01*
X29041397Y-91508386D01*
X28860285Y-91583405D01*
X28668017Y-91621650D01*
X28471983Y-91621650D01*
X28279715Y-91583405D01*
X28098603Y-91508386D01*
X27935607Y-91399475D01*
X27796990Y-91260858D01*
X27688079Y-91097862D01*
X27613060Y-90916750D01*
X27574815Y-90724482D01*
X27574815Y-90528448D01*
X27613060Y-90336180D01*
X27688079Y-90155068D01*
X27796990Y-89992072D01*
X27935607Y-89853455D01*
X28098603Y-89744544D01*
X28279715Y-89669525D01*
X28471983Y-89631280D01*
X28668017Y-89631280D01*
X28860285Y-89669525D01*
G37*
G36*
X90492228Y-89860913D02*
G01*
X90637117Y-89920928D01*
X90767515Y-90008057D01*
X90878408Y-90118950D01*
X90965537Y-90249348D01*
X91025552Y-90394237D01*
X91056148Y-90548051D01*
X91056148Y-90704879D01*
X91025552Y-90858693D01*
X90965537Y-91003582D01*
X90878408Y-91133980D01*
X90767515Y-91244873D01*
X90637117Y-91332002D01*
X90492228Y-91392017D01*
X90338414Y-91422613D01*
X90181586Y-91422613D01*
X90027772Y-91392017D01*
X89882883Y-91332002D01*
X89752485Y-91244873D01*
X89641592Y-91133980D01*
X89554463Y-91003582D01*
X89494448Y-90858693D01*
X89463852Y-90704879D01*
X89463852Y-90548051D01*
X89494448Y-90394237D01*
X89554463Y-90249348D01*
X89641592Y-90118950D01*
X89752485Y-90008057D01*
X89882883Y-89920928D01*
X90027772Y-89860913D01*
X90181586Y-89830317D01*
X90338414Y-89830317D01*
X90492228Y-89860913D01*
G37*
G36*
X85316742Y-89653066D02*
G01*
X85470687Y-89716832D01*
X85609234Y-89809406D01*
X85727059Y-89927231D01*
X85819633Y-90065778D01*
X85883399Y-90219723D01*
X85915907Y-90383150D01*
X85915907Y-90549780D01*
X85883399Y-90713207D01*
X85819633Y-90867152D01*
X85727059Y-91005699D01*
X85609234Y-91123524D01*
X85470687Y-91216098D01*
X85316742Y-91279864D01*
X85153315Y-91312372D01*
X84986685Y-91312372D01*
X84823258Y-91279864D01*
X84669313Y-91216098D01*
X84530766Y-91123524D01*
X84412941Y-91005699D01*
X84320367Y-90867152D01*
X84256601Y-90713207D01*
X84224093Y-90549780D01*
X84224093Y-90383150D01*
X84256601Y-90219723D01*
X84320367Y-90065778D01*
X84412941Y-89927231D01*
X84530766Y-89809406D01*
X84669313Y-89716832D01*
X84823258Y-89653066D01*
X84986685Y-89620558D01*
X85153315Y-89620558D01*
X85316742Y-89653066D01*
G37*
G36*
X80372562Y-89340912D02*
G01*
X80536378Y-89408767D01*
X80683809Y-89507277D01*
X80809188Y-89632656D01*
X80907698Y-89780087D01*
X80975553Y-89943903D01*
X81010145Y-90117808D01*
X81010145Y-90295122D01*
X80975553Y-90469027D01*
X80907698Y-90632843D01*
X80809188Y-90780274D01*
X80683809Y-90905653D01*
X80536378Y-91004163D01*
X80372562Y-91072018D01*
X80198657Y-91106610D01*
X80021343Y-91106610D01*
X79847438Y-91072018D01*
X79683622Y-91004163D01*
X79536191Y-90905653D01*
X79410812Y-90780274D01*
X79312302Y-90632843D01*
X79244447Y-90469027D01*
X79209855Y-90295122D01*
X79209855Y-90117808D01*
X79244447Y-89943903D01*
X79312302Y-89780087D01*
X79410812Y-89632656D01*
X79536191Y-89507277D01*
X79683622Y-89408767D01*
X79847438Y-89340912D01*
X80021343Y-89306320D01*
X80198657Y-89306320D01*
X80372562Y-89340912D01*
G37*
G36*
X53490001Y-85925264D02*
G01*
X53492380Y-85927643D01*
X53520480Y-85927643D01*
X53525483Y-85927643D01*
X53527396Y-85928024D01*
X53532014Y-85929937D01*
X53532019Y-85929938D01*
X53594869Y-85955971D01*
X53594873Y-85955973D01*
X53599492Y-85957887D01*
X53601115Y-85958970D01*
X53656295Y-86014150D01*
X53657378Y-86015773D01*
X53659291Y-86020392D01*
X53659293Y-86020395D01*
X53659334Y-86020495D01*
X53687241Y-86087869D01*
X53687622Y-86089782D01*
X53687622Y-86122885D01*
X53690001Y-86125264D01*
X53691465Y-86128800D01*
X53691465Y-87328800D01*
X53690001Y-87332336D01*
X53687622Y-87334715D01*
X53687622Y-87367818D01*
X53687241Y-87369731D01*
X53657378Y-87441827D01*
X53656295Y-87443450D01*
X53601115Y-87498630D01*
X53599492Y-87499713D01*
X53527396Y-87529576D01*
X53525483Y-87529957D01*
X53492380Y-87529957D01*
X53490001Y-87532336D01*
X53486465Y-87533800D01*
X53476361Y-87533800D01*
X52896569Y-87533800D01*
X52886465Y-87533800D01*
X52882929Y-87532336D01*
X52881940Y-87529948D01*
X52810541Y-87529948D01*
X52808051Y-87529948D01*
X52807076Y-87529852D01*
X52653262Y-87499256D01*
X52652324Y-87498971D01*
X52650024Y-87498018D01*
X52650013Y-87498015D01*
X52509747Y-87439915D01*
X52509735Y-87439909D01*
X52507435Y-87438956D01*
X52506570Y-87438494D01*
X52470928Y-87414679D01*
X52378250Y-87352754D01*
X52378246Y-87352751D01*
X52376172Y-87351365D01*
X52375414Y-87350744D01*
X52264521Y-87239851D01*
X52263900Y-87239093D01*
X52262514Y-87237019D01*
X52262510Y-87237014D01*
X52178160Y-87110774D01*
X52178159Y-87110772D01*
X52176771Y-87108695D01*
X52176309Y-87107830D01*
X52175357Y-87105532D01*
X52175349Y-87105517D01*
X52117249Y-86965251D01*
X52117243Y-86965234D01*
X52116294Y-86962941D01*
X52116009Y-86962003D01*
X52109392Y-86928742D01*
X52085898Y-86810630D01*
X52085897Y-86810624D01*
X52085413Y-86808189D01*
X52085317Y-86807214D01*
X52085317Y-86650386D01*
X52085413Y-86649411D01*
X52085897Y-86646976D01*
X52085898Y-86646969D01*
X52115522Y-86498045D01*
X52115522Y-86498044D01*
X52116009Y-86495597D01*
X52116294Y-86494659D01*
X52117242Y-86492368D01*
X52117249Y-86492348D01*
X52175349Y-86352082D01*
X52175359Y-86352062D01*
X52176309Y-86349770D01*
X52176771Y-86348905D01*
X52178156Y-86346831D01*
X52178160Y-86346825D01*
X52262510Y-86220585D01*
X52262518Y-86220574D01*
X52263900Y-86218507D01*
X52264521Y-86217749D01*
X52266287Y-86215982D01*
X52266292Y-86215977D01*
X52373642Y-86108627D01*
X52373647Y-86108622D01*
X52375414Y-86106856D01*
X52376172Y-86106235D01*
X52378239Y-86104853D01*
X52378250Y-86104845D01*
X52504490Y-86020495D01*
X52504496Y-86020491D01*
X52506570Y-86019106D01*
X52507435Y-86018644D01*
X52509727Y-86017694D01*
X52509747Y-86017684D01*
X52650013Y-85959584D01*
X52650033Y-85959577D01*
X52652324Y-85958629D01*
X52653262Y-85958344D01*
X52655710Y-85957857D01*
X52804634Y-85928233D01*
X52804641Y-85928232D01*
X52807076Y-85927748D01*
X52808051Y-85927652D01*
X52881940Y-85927652D01*
X52882929Y-85925264D01*
X52886465Y-85923800D01*
X53486465Y-85923800D01*
X53490001Y-85925264D01*
G37*
G36*
X70670001Y-85925264D02*
G01*
X70670990Y-85927652D01*
X70742389Y-85927652D01*
X70744879Y-85927652D01*
X70745854Y-85927748D01*
X70748289Y-85928232D01*
X70748295Y-85928233D01*
X70866407Y-85951727D01*
X70899668Y-85958344D01*
X70900606Y-85958629D01*
X70902899Y-85959578D01*
X70902916Y-85959584D01*
X71043182Y-86017684D01*
X71043197Y-86017692D01*
X71045495Y-86018644D01*
X71046360Y-86019106D01*
X71048437Y-86020494D01*
X71048439Y-86020495D01*
X71174679Y-86104845D01*
X71174684Y-86104849D01*
X71176758Y-86106235D01*
X71177516Y-86106856D01*
X71288409Y-86217749D01*
X71289030Y-86218507D01*
X71290416Y-86220581D01*
X71290419Y-86220585D01*
X71352344Y-86313263D01*
X71376159Y-86348905D01*
X71376621Y-86349770D01*
X71377574Y-86352070D01*
X71377580Y-86352082D01*
X71435680Y-86492348D01*
X71435683Y-86492359D01*
X71436636Y-86494659D01*
X71436921Y-86495597D01*
X71467517Y-86649411D01*
X71467613Y-86650386D01*
X71467613Y-86807214D01*
X71467517Y-86808189D01*
X71436921Y-86962003D01*
X71436636Y-86962941D01*
X71435682Y-86965243D01*
X71435680Y-86965251D01*
X71377580Y-87105517D01*
X71377575Y-87105524D01*
X71376621Y-87107830D01*
X71376159Y-87108695D01*
X71289030Y-87239093D01*
X71288409Y-87239851D01*
X71177516Y-87350744D01*
X71176758Y-87351365D01*
X71046360Y-87438494D01*
X71045495Y-87438956D01*
X71043189Y-87439910D01*
X71043182Y-87439915D01*
X70902916Y-87498015D01*
X70902908Y-87498017D01*
X70900606Y-87498971D01*
X70899668Y-87499256D01*
X70745854Y-87529852D01*
X70744879Y-87529948D01*
X70670990Y-87529948D01*
X70670001Y-87532336D01*
X70666465Y-87533800D01*
X70656361Y-87533800D01*
X70076569Y-87533800D01*
X70066465Y-87533800D01*
X70062929Y-87532336D01*
X70060550Y-87529957D01*
X70032450Y-87529957D01*
X70027447Y-87529957D01*
X70025534Y-87529576D01*
X70020911Y-87527661D01*
X70020910Y-87527661D01*
X69958060Y-87501628D01*
X69958057Y-87501626D01*
X69953438Y-87499713D01*
X69951815Y-87498630D01*
X69896635Y-87443450D01*
X69895552Y-87441827D01*
X69893638Y-87437208D01*
X69893636Y-87437204D01*
X69867603Y-87374354D01*
X69867602Y-87374349D01*
X69865689Y-87369731D01*
X69865308Y-87367818D01*
X69865308Y-87334715D01*
X69862929Y-87332336D01*
X69861465Y-87328800D01*
X69861465Y-86128800D01*
X69862929Y-86125264D01*
X69865308Y-86122885D01*
X69865308Y-86089782D01*
X69865689Y-86087869D01*
X69867601Y-86083251D01*
X69867603Y-86083245D01*
X69893636Y-86020395D01*
X69893639Y-86020389D01*
X69895552Y-86015773D01*
X69896635Y-86014150D01*
X69900171Y-86010613D01*
X69900174Y-86010610D01*
X69948275Y-85962509D01*
X69948278Y-85962506D01*
X69951815Y-85958970D01*
X69953438Y-85957887D01*
X69958054Y-85955974D01*
X69958060Y-85955971D01*
X70020910Y-85929938D01*
X70020916Y-85929936D01*
X70025534Y-85928024D01*
X70027447Y-85927643D01*
X70060550Y-85927643D01*
X70062929Y-85925264D01*
X70066465Y-85923800D01*
X70666465Y-85923800D01*
X70670001Y-85925264D01*
G37*
G36*
X80372562Y-81720912D02*
G01*
X80536378Y-81788767D01*
X80683809Y-81887277D01*
X80809188Y-82012656D01*
X80907698Y-82160087D01*
X80975553Y-82323903D01*
X81010145Y-82497808D01*
X81010145Y-82675122D01*
X80975553Y-82849027D01*
X80907698Y-83012843D01*
X80809188Y-83160274D01*
X80683809Y-83285653D01*
X80536378Y-83384163D01*
X80372562Y-83452018D01*
X80198657Y-83486610D01*
X80021343Y-83486610D01*
X79847438Y-83452018D01*
X79683622Y-83384163D01*
X79536191Y-83285653D01*
X79410812Y-83160274D01*
X79312302Y-83012843D01*
X79244447Y-82849027D01*
X79209855Y-82675122D01*
X79209855Y-82497808D01*
X79244447Y-82323903D01*
X79312302Y-82160087D01*
X79410812Y-82012656D01*
X79536191Y-81887277D01*
X79683622Y-81788767D01*
X79847438Y-81720912D01*
X80021343Y-81686320D01*
X80198657Y-81686320D01*
X80372562Y-81720912D01*
G37*
G36*
X90992228Y-80860913D02*
G01*
X91137117Y-80920928D01*
X91267515Y-81008057D01*
X91378408Y-81118950D01*
X91465537Y-81249348D01*
X91525552Y-81394237D01*
X91556148Y-81548051D01*
X91556148Y-81704879D01*
X91525552Y-81858693D01*
X91465537Y-82003582D01*
X91378408Y-82133980D01*
X91267515Y-82244873D01*
X91137117Y-82332002D01*
X90992228Y-82392017D01*
X90838414Y-82422613D01*
X90681586Y-82422613D01*
X90527772Y-82392017D01*
X90382883Y-82332002D01*
X90252485Y-82244873D01*
X90141592Y-82133980D01*
X90054463Y-82003582D01*
X89994448Y-81858693D01*
X89963852Y-81704879D01*
X89963852Y-81548051D01*
X89994448Y-81394237D01*
X90054463Y-81249348D01*
X90141592Y-81118950D01*
X90252485Y-81008057D01*
X90382883Y-80920928D01*
X90527772Y-80860913D01*
X90681586Y-80830317D01*
X90838414Y-80830317D01*
X90992228Y-80860913D01*
G37*
G36*
X28860285Y-79169525D02*
G01*
X29041397Y-79244544D01*
X29204393Y-79353455D01*
X29343010Y-79492072D01*
X29451921Y-79655068D01*
X29526940Y-79836180D01*
X29565185Y-80028448D01*
X29565185Y-80224482D01*
X29526940Y-80416750D01*
X29451921Y-80597862D01*
X29343010Y-80760858D01*
X29204393Y-80899475D01*
X29041397Y-81008386D01*
X28860285Y-81083405D01*
X28668017Y-81121650D01*
X28471983Y-81121650D01*
X28279715Y-81083405D01*
X28098603Y-81008386D01*
X27935607Y-80899475D01*
X27796990Y-80760858D01*
X27688079Y-80597862D01*
X27613060Y-80416750D01*
X27574815Y-80224482D01*
X27574815Y-80028448D01*
X27613060Y-79836180D01*
X27688079Y-79655068D01*
X27796990Y-79492072D01*
X27935607Y-79353455D01*
X28098603Y-79244544D01*
X28279715Y-79169525D01*
X28471983Y-79131280D01*
X28668017Y-79131280D01*
X28860285Y-79169525D01*
G37*
G36*
X35181256Y-78115219D02*
G01*
X35344257Y-78182736D01*
X35490954Y-78280756D01*
X35615709Y-78405511D01*
X35713729Y-78552208D01*
X35781246Y-78715209D01*
X35815666Y-78888250D01*
X35815666Y-79064680D01*
X35781246Y-79237721D01*
X35713729Y-79400722D01*
X35615709Y-79547419D01*
X35490954Y-79672174D01*
X35344257Y-79770194D01*
X35181256Y-79837711D01*
X35008215Y-79872131D01*
X34831785Y-79872131D01*
X34658744Y-79837711D01*
X34495743Y-79770194D01*
X34349046Y-79672174D01*
X34224291Y-79547419D01*
X34126271Y-79400722D01*
X34058754Y-79237721D01*
X34024334Y-79064680D01*
X34024334Y-78888250D01*
X34058754Y-78715209D01*
X34126271Y-78552208D01*
X34224291Y-78405511D01*
X34349046Y-78280756D01*
X34495743Y-78182736D01*
X34658744Y-78115219D01*
X34831785Y-78080799D01*
X35008215Y-78080799D01*
X35181256Y-78115219D01*
G37*
G36*
X90802228Y-76860913D02*
G01*
X90947117Y-76920928D01*
X91077515Y-77008057D01*
X91188408Y-77118950D01*
X91275537Y-77249348D01*
X91335552Y-77394237D01*
X91366148Y-77548051D01*
X91366148Y-77704879D01*
X91335552Y-77858693D01*
X91275537Y-78003582D01*
X91188408Y-78133980D01*
X91077515Y-78244873D01*
X90947117Y-78332002D01*
X90802228Y-78392017D01*
X90648414Y-78422613D01*
X90491586Y-78422613D01*
X90337772Y-78392017D01*
X90192883Y-78332002D01*
X90062485Y-78244873D01*
X89951592Y-78133980D01*
X89864463Y-78003582D01*
X89804448Y-77858693D01*
X89773852Y-77704879D01*
X89773852Y-77548051D01*
X89804448Y-77394237D01*
X89864463Y-77249348D01*
X89951592Y-77118950D01*
X90062485Y-77008057D01*
X90192883Y-76920928D01*
X90337772Y-76860913D01*
X90491586Y-76830317D01*
X90648414Y-76830317D01*
X90802228Y-76860913D01*
G37*
G36*
X85246742Y-75266601D02*
G01*
X85400687Y-75330367D01*
X85539234Y-75422941D01*
X85657059Y-75540766D01*
X85749633Y-75679313D01*
X85813399Y-75833258D01*
X85845907Y-75996685D01*
X85845907Y-76163315D01*
X85813399Y-76326742D01*
X85749633Y-76480687D01*
X85657059Y-76619234D01*
X85539234Y-76737059D01*
X85400687Y-76829633D01*
X85246742Y-76893399D01*
X85083315Y-76925907D01*
X84916685Y-76925907D01*
X84753258Y-76893399D01*
X84599313Y-76829633D01*
X84460766Y-76737059D01*
X84342941Y-76619234D01*
X84250367Y-76480687D01*
X84186601Y-76326742D01*
X84154093Y-76163315D01*
X84154093Y-75996685D01*
X84186601Y-75833258D01*
X84250367Y-75679313D01*
X84342941Y-75540766D01*
X84460766Y-75422941D01*
X84599313Y-75330367D01*
X84753258Y-75266601D01*
X84916685Y-75234093D01*
X85083315Y-75234093D01*
X85246742Y-75266601D01*
G37*
G36*
X77832562Y-74100912D02*
G01*
X77996378Y-74168767D01*
X78143809Y-74267277D01*
X78269188Y-74392656D01*
X78367698Y-74540087D01*
X78435553Y-74703903D01*
X78470145Y-74877808D01*
X78470145Y-75055122D01*
X78435553Y-75229027D01*
X78367698Y-75392843D01*
X78269188Y-75540274D01*
X78143809Y-75665653D01*
X77996378Y-75764163D01*
X77832562Y-75832018D01*
X77658657Y-75866610D01*
X77481343Y-75866610D01*
X77307438Y-75832018D01*
X77143622Y-75764163D01*
X76996191Y-75665653D01*
X76870812Y-75540274D01*
X76772302Y-75392843D01*
X76704447Y-75229027D01*
X76669855Y-75055122D01*
X76669855Y-74877808D01*
X76704447Y-74703903D01*
X76772302Y-74540087D01*
X76870812Y-74392656D01*
X76996191Y-74267277D01*
X77143622Y-74168767D01*
X77307438Y-74100912D01*
X77481343Y-74066320D01*
X77658657Y-74066320D01*
X77832562Y-74100912D01*
G37*
G36*
X34981256Y-73155219D02*
G01*
X35144257Y-73222736D01*
X35290954Y-73320756D01*
X35415709Y-73445511D01*
X35513729Y-73592208D01*
X35581246Y-73755209D01*
X35615666Y-73928250D01*
X35615666Y-74104680D01*
X35581246Y-74277721D01*
X35513729Y-74440722D01*
X35415709Y-74587419D01*
X35290954Y-74712174D01*
X35144257Y-74810194D01*
X34981256Y-74877711D01*
X34808215Y-74912131D01*
X34631785Y-74912131D01*
X34458744Y-74877711D01*
X34295743Y-74810194D01*
X34149046Y-74712174D01*
X34024291Y-74587419D01*
X33926271Y-74440722D01*
X33858754Y-74277721D01*
X33824334Y-74104680D01*
X33824334Y-73928250D01*
X33858754Y-73755209D01*
X33926271Y-73592208D01*
X34024291Y-73445511D01*
X34149046Y-73320756D01*
X34295743Y-73222736D01*
X34458744Y-73155219D01*
X34631785Y-73120799D01*
X34808215Y-73120799D01*
X34981256Y-73155219D01*
G37*
G36*
X47681256Y-73155219D02*
G01*
X47844257Y-73222736D01*
X47990954Y-73320756D01*
X48115709Y-73445511D01*
X48213729Y-73592208D01*
X48281246Y-73755209D01*
X48315666Y-73928250D01*
X48315666Y-74104680D01*
X48281246Y-74277721D01*
X48213729Y-74440722D01*
X48115709Y-74587419D01*
X47990954Y-74712174D01*
X47844257Y-74810194D01*
X47681256Y-74877711D01*
X47508215Y-74912131D01*
X47331785Y-74912131D01*
X47158744Y-74877711D01*
X46995743Y-74810194D01*
X46849046Y-74712174D01*
X46724291Y-74587419D01*
X46626271Y-74440722D01*
X46558754Y-74277721D01*
X46524334Y-74104680D01*
X46524334Y-73928250D01*
X46558754Y-73755209D01*
X46626271Y-73592208D01*
X46724291Y-73445511D01*
X46849046Y-73320756D01*
X46995743Y-73222736D01*
X47158744Y-73155219D01*
X47331785Y-73120799D01*
X47508215Y-73120799D01*
X47681256Y-73155219D01*
G37*
G36*
X53490001Y-73225264D02*
G01*
X53492380Y-73227643D01*
X53520480Y-73227643D01*
X53525483Y-73227643D01*
X53527396Y-73228024D01*
X53532014Y-73229937D01*
X53532019Y-73229938D01*
X53594869Y-73255971D01*
X53594873Y-73255973D01*
X53599492Y-73257887D01*
X53601115Y-73258970D01*
X53656295Y-73314150D01*
X53657378Y-73315773D01*
X53659291Y-73320392D01*
X53659293Y-73320395D01*
X53659521Y-73320946D01*
X53687241Y-73387869D01*
X53687622Y-73389782D01*
X53687622Y-73422885D01*
X53690001Y-73425264D01*
X53691465Y-73428800D01*
X53691465Y-74628800D01*
X53690001Y-74632336D01*
X53687622Y-74634715D01*
X53687622Y-74667818D01*
X53687241Y-74669731D01*
X53657378Y-74741827D01*
X53656295Y-74743450D01*
X53601115Y-74798630D01*
X53599492Y-74799713D01*
X53527396Y-74829576D01*
X53525483Y-74829957D01*
X53492380Y-74829957D01*
X53490001Y-74832336D01*
X53486465Y-74833800D01*
X53476361Y-74833800D01*
X52896569Y-74833800D01*
X52886465Y-74833800D01*
X52882929Y-74832336D01*
X52881940Y-74829948D01*
X52810541Y-74829948D01*
X52808051Y-74829948D01*
X52807076Y-74829852D01*
X52653262Y-74799256D01*
X52652324Y-74798971D01*
X52650024Y-74798018D01*
X52650013Y-74798015D01*
X52509747Y-74739915D01*
X52509735Y-74739909D01*
X52507435Y-74738956D01*
X52506570Y-74738494D01*
X52454801Y-74703903D01*
X52378250Y-74652754D01*
X52378246Y-74652751D01*
X52376172Y-74651365D01*
X52375414Y-74650744D01*
X52264521Y-74539851D01*
X52263900Y-74539093D01*
X52262514Y-74537019D01*
X52262510Y-74537014D01*
X52178160Y-74410774D01*
X52178159Y-74410772D01*
X52176771Y-74408695D01*
X52176309Y-74407830D01*
X52175357Y-74405532D01*
X52175349Y-74405517D01*
X52117249Y-74265251D01*
X52117243Y-74265234D01*
X52116294Y-74262941D01*
X52116009Y-74262003D01*
X52109392Y-74228742D01*
X52085898Y-74110630D01*
X52085897Y-74110624D01*
X52085413Y-74108189D01*
X52085317Y-74107214D01*
X52085317Y-73950386D01*
X52085413Y-73949411D01*
X52085897Y-73946976D01*
X52085898Y-73946969D01*
X52115522Y-73798045D01*
X52115522Y-73798044D01*
X52116009Y-73795597D01*
X52116294Y-73794659D01*
X52117242Y-73792368D01*
X52117249Y-73792348D01*
X52175349Y-73652082D01*
X52175359Y-73652062D01*
X52176309Y-73649770D01*
X52176771Y-73648905D01*
X52178156Y-73646831D01*
X52178160Y-73646825D01*
X52262510Y-73520585D01*
X52262518Y-73520574D01*
X52263900Y-73518507D01*
X52264521Y-73517749D01*
X52266287Y-73515982D01*
X52266292Y-73515977D01*
X52373642Y-73408627D01*
X52373647Y-73408622D01*
X52375414Y-73406856D01*
X52376172Y-73406235D01*
X52378239Y-73404853D01*
X52378250Y-73404845D01*
X52504490Y-73320495D01*
X52504496Y-73320491D01*
X52506570Y-73319106D01*
X52507435Y-73318644D01*
X52509727Y-73317694D01*
X52509747Y-73317684D01*
X52650013Y-73259584D01*
X52650033Y-73259577D01*
X52652324Y-73258629D01*
X52653262Y-73258344D01*
X52655710Y-73257857D01*
X52804634Y-73228233D01*
X52804641Y-73228232D01*
X52807076Y-73227748D01*
X52808051Y-73227652D01*
X52881940Y-73227652D01*
X52882929Y-73225264D01*
X52886465Y-73223800D01*
X53486465Y-73223800D01*
X53490001Y-73225264D01*
G37*
G36*
X28860285Y-69739525D02*
G01*
X29041397Y-69814544D01*
X29204393Y-69923455D01*
X29343010Y-70062072D01*
X29451921Y-70225068D01*
X29526940Y-70406180D01*
X29565185Y-70598448D01*
X29565185Y-70794482D01*
X29526940Y-70986750D01*
X29451921Y-71167862D01*
X29343010Y-71330858D01*
X29204393Y-71469475D01*
X29041397Y-71578386D01*
X28860285Y-71653405D01*
X28668017Y-71691650D01*
X28471983Y-71691650D01*
X28279715Y-71653405D01*
X28098603Y-71578386D01*
X27935607Y-71469475D01*
X27796990Y-71330858D01*
X27688079Y-71167862D01*
X27613060Y-70986750D01*
X27574815Y-70794482D01*
X27574815Y-70598448D01*
X27613060Y-70406180D01*
X27688079Y-70225068D01*
X27796990Y-70062072D01*
X27935607Y-69923455D01*
X28098603Y-69814544D01*
X28279715Y-69739525D01*
X28471983Y-69701280D01*
X28668017Y-69701280D01*
X28860285Y-69739525D01*
G37*
G36*
X90992228Y-69860913D02*
G01*
X91137117Y-69920928D01*
X91267515Y-70008057D01*
X91378408Y-70118950D01*
X91465537Y-70249348D01*
X91525552Y-70394237D01*
X91556148Y-70548051D01*
X91556148Y-70704879D01*
X91525552Y-70858693D01*
X91465537Y-71003582D01*
X91378408Y-71133980D01*
X91267515Y-71244873D01*
X91137117Y-71332002D01*
X90992228Y-71392017D01*
X90838414Y-71422613D01*
X90681586Y-71422613D01*
X90527772Y-71392017D01*
X90382883Y-71332002D01*
X90252485Y-71244873D01*
X90141592Y-71133980D01*
X90054463Y-71003582D01*
X89994448Y-70858693D01*
X89963852Y-70704879D01*
X89963852Y-70548051D01*
X89994448Y-70394237D01*
X90054463Y-70249348D01*
X90141592Y-70118950D01*
X90252485Y-70008057D01*
X90382883Y-69920928D01*
X90527772Y-69860913D01*
X90681586Y-69830317D01*
X90838414Y-69830317D01*
X90992228Y-69860913D01*
G37*
G36*
X80372562Y-69020912D02*
G01*
X80536378Y-69088767D01*
X80683809Y-69187277D01*
X80809188Y-69312656D01*
X80907698Y-69460087D01*
X80975553Y-69623903D01*
X81010145Y-69797808D01*
X81010145Y-69975122D01*
X80975553Y-70149027D01*
X80907698Y-70312843D01*
X80809188Y-70460274D01*
X80683809Y-70585653D01*
X80536378Y-70684163D01*
X80372562Y-70752018D01*
X80198657Y-70786610D01*
X80021343Y-70786610D01*
X79847438Y-70752018D01*
X79683622Y-70684163D01*
X79536191Y-70585653D01*
X79410812Y-70460274D01*
X79312302Y-70312843D01*
X79244447Y-70149027D01*
X79209855Y-69975122D01*
X79209855Y-69797808D01*
X79244447Y-69623903D01*
X79312302Y-69460087D01*
X79410812Y-69312656D01*
X79536191Y-69187277D01*
X79683622Y-69088767D01*
X79847438Y-69020912D01*
X80021343Y-68986320D01*
X80198657Y-68986320D01*
X80372562Y-69020912D01*
G37*
G36*
X90992228Y-65860913D02*
G01*
X91137117Y-65920928D01*
X91267515Y-66008057D01*
X91378408Y-66118950D01*
X91465537Y-66249348D01*
X91525552Y-66394237D01*
X91556148Y-66548051D01*
X91556148Y-66704879D01*
X91525552Y-66858693D01*
X91465537Y-67003582D01*
X91378408Y-67133980D01*
X91267515Y-67244873D01*
X91137117Y-67332002D01*
X90992228Y-67392017D01*
X90838414Y-67422613D01*
X90681586Y-67422613D01*
X90527772Y-67392017D01*
X90382883Y-67332002D01*
X90252485Y-67244873D01*
X90141592Y-67133980D01*
X90054463Y-67003582D01*
X89994448Y-66858693D01*
X89963852Y-66704879D01*
X89963852Y-66548051D01*
X89994448Y-66394237D01*
X90054463Y-66249348D01*
X90141592Y-66118950D01*
X90252485Y-66008057D01*
X90382883Y-65920928D01*
X90527772Y-65860913D01*
X90681586Y-65830317D01*
X90838414Y-65830317D01*
X90992228Y-65860913D01*
G37*
G36*
X80372562Y-63940912D02*
G01*
X80536378Y-64008767D01*
X80683809Y-64107277D01*
X80809188Y-64232656D01*
X80907698Y-64380087D01*
X80975553Y-64543903D01*
X81010145Y-64717808D01*
X81010145Y-64895122D01*
X80975553Y-65069027D01*
X80907698Y-65232843D01*
X80809188Y-65380274D01*
X80683809Y-65505653D01*
X80536378Y-65604163D01*
X80372562Y-65672018D01*
X80198657Y-65706610D01*
X80021343Y-65706610D01*
X79847438Y-65672018D01*
X79683622Y-65604163D01*
X79536191Y-65505653D01*
X79410812Y-65380274D01*
X79312302Y-65232843D01*
X79244447Y-65069027D01*
X79209855Y-64895122D01*
X79209855Y-64717808D01*
X79244447Y-64543903D01*
X79312302Y-64380087D01*
X79410812Y-64232656D01*
X79536191Y-64107277D01*
X79683622Y-64008767D01*
X79847438Y-63940912D01*
X80021343Y-63906320D01*
X80198657Y-63906320D01*
X80372562Y-63940912D01*
G37*
G36*
X86350000Y-63890000D02*
G01*
X84650000Y-63890000D01*
X84650000Y-62190000D01*
X86350000Y-62190000D01*
X86350000Y-63890000D01*
G37*
G36*
X25970000Y-62296465D02*
G01*
X24170000Y-62296465D01*
X24170000Y-60496465D01*
X25970000Y-60496465D01*
X25970000Y-62296465D01*
G37*
G36*
X53490001Y-60525264D02*
G01*
X53492380Y-60527643D01*
X53520480Y-60527643D01*
X53525483Y-60527643D01*
X53527396Y-60528024D01*
X53532014Y-60529937D01*
X53532019Y-60529938D01*
X53594869Y-60555971D01*
X53594873Y-60555973D01*
X53599492Y-60557887D01*
X53601115Y-60558970D01*
X53656295Y-60614150D01*
X53657378Y-60615773D01*
X53659291Y-60620392D01*
X53659293Y-60620395D01*
X53659334Y-60620495D01*
X53687241Y-60687869D01*
X53687622Y-60689782D01*
X53687622Y-60722885D01*
X53690001Y-60725264D01*
X53691465Y-60728800D01*
X53691465Y-61928800D01*
X53690001Y-61932336D01*
X53687622Y-61934715D01*
X53687622Y-61967818D01*
X53687241Y-61969731D01*
X53657378Y-62041827D01*
X53656295Y-62043450D01*
X53601115Y-62098630D01*
X53599492Y-62099713D01*
X53527396Y-62129576D01*
X53525483Y-62129957D01*
X53492380Y-62129957D01*
X53490001Y-62132336D01*
X53486465Y-62133800D01*
X53476361Y-62133800D01*
X52896569Y-62133800D01*
X52886465Y-62133800D01*
X52882929Y-62132336D01*
X52881940Y-62129948D01*
X52810541Y-62129948D01*
X52808051Y-62129948D01*
X52807076Y-62129852D01*
X52653262Y-62099256D01*
X52652324Y-62098971D01*
X52650024Y-62098018D01*
X52650013Y-62098015D01*
X52509747Y-62039915D01*
X52509735Y-62039909D01*
X52507435Y-62038956D01*
X52506570Y-62038494D01*
X52470928Y-62014679D01*
X52378250Y-61952754D01*
X52378246Y-61952751D01*
X52376172Y-61951365D01*
X52375414Y-61950744D01*
X52264521Y-61839851D01*
X52263900Y-61839093D01*
X52262514Y-61837019D01*
X52262510Y-61837014D01*
X52178160Y-61710774D01*
X52178159Y-61710772D01*
X52176771Y-61708695D01*
X52176309Y-61707830D01*
X52175357Y-61705532D01*
X52175349Y-61705517D01*
X52117249Y-61565251D01*
X52117243Y-61565234D01*
X52116294Y-61562941D01*
X52116009Y-61562003D01*
X52109392Y-61528742D01*
X52085898Y-61410630D01*
X52085897Y-61410624D01*
X52085413Y-61408189D01*
X52085317Y-61407214D01*
X52085317Y-61250386D01*
X52085413Y-61249411D01*
X52085897Y-61246976D01*
X52085898Y-61246969D01*
X52115522Y-61098045D01*
X52115522Y-61098044D01*
X52116009Y-61095597D01*
X52116294Y-61094659D01*
X52117242Y-61092368D01*
X52117249Y-61092348D01*
X52175349Y-60952082D01*
X52175359Y-60952062D01*
X52176309Y-60949770D01*
X52176771Y-60948905D01*
X52178156Y-60946831D01*
X52178160Y-60946825D01*
X52262510Y-60820585D01*
X52262518Y-60820574D01*
X52263900Y-60818507D01*
X52264521Y-60817749D01*
X52266287Y-60815982D01*
X52266292Y-60815977D01*
X52373642Y-60708627D01*
X52373647Y-60708622D01*
X52375414Y-60706856D01*
X52376172Y-60706235D01*
X52378239Y-60704853D01*
X52378250Y-60704845D01*
X52504490Y-60620495D01*
X52504496Y-60620491D01*
X52506570Y-60619106D01*
X52507435Y-60618644D01*
X52509727Y-60617694D01*
X52509747Y-60617684D01*
X52650013Y-60559584D01*
X52650033Y-60559577D01*
X52652324Y-60558629D01*
X52653262Y-60558344D01*
X52655710Y-60557857D01*
X52804634Y-60528233D01*
X52804641Y-60528232D01*
X52807076Y-60527748D01*
X52808051Y-60527652D01*
X52881940Y-60527652D01*
X52882929Y-60525264D01*
X52886465Y-60523800D01*
X53486465Y-60523800D01*
X53490001Y-60525264D01*
G37*
G36*
X70670001Y-60525264D02*
G01*
X70670990Y-60527652D01*
X70742389Y-60527652D01*
X70744879Y-60527652D01*
X70745854Y-60527748D01*
X70748289Y-60528232D01*
X70748295Y-60528233D01*
X70866407Y-60551727D01*
X70899668Y-60558344D01*
X70900606Y-60558629D01*
X70902899Y-60559578D01*
X70902916Y-60559584D01*
X71043182Y-60617684D01*
X71043197Y-60617692D01*
X71045495Y-60618644D01*
X71046360Y-60619106D01*
X71048437Y-60620494D01*
X71048439Y-60620495D01*
X71174679Y-60704845D01*
X71174684Y-60704849D01*
X71176758Y-60706235D01*
X71177516Y-60706856D01*
X71288409Y-60817749D01*
X71289030Y-60818507D01*
X71290416Y-60820581D01*
X71290419Y-60820585D01*
X71343863Y-60900571D01*
X71376159Y-60948905D01*
X71376621Y-60949770D01*
X71377574Y-60952070D01*
X71377580Y-60952082D01*
X71435680Y-61092348D01*
X71435683Y-61092359D01*
X71436636Y-61094659D01*
X71436921Y-61095597D01*
X71467517Y-61249411D01*
X71467613Y-61250386D01*
X71467613Y-61407214D01*
X71467517Y-61408189D01*
X71436921Y-61562003D01*
X71436636Y-61562941D01*
X71435682Y-61565243D01*
X71435680Y-61565251D01*
X71377580Y-61705517D01*
X71377575Y-61705524D01*
X71376621Y-61707830D01*
X71376159Y-61708695D01*
X71289030Y-61839093D01*
X71288409Y-61839851D01*
X71177516Y-61950744D01*
X71176758Y-61951365D01*
X71046360Y-62038494D01*
X71045495Y-62038956D01*
X71043189Y-62039910D01*
X71043182Y-62039915D01*
X70902916Y-62098015D01*
X70902908Y-62098017D01*
X70900606Y-62098971D01*
X70899668Y-62099256D01*
X70745854Y-62129852D01*
X70744879Y-62129948D01*
X70670990Y-62129948D01*
X70670001Y-62132336D01*
X70666465Y-62133800D01*
X70656361Y-62133800D01*
X70076569Y-62133800D01*
X70066465Y-62133800D01*
X70062929Y-62132336D01*
X70060550Y-62129957D01*
X70032450Y-62129957D01*
X70027447Y-62129957D01*
X70025534Y-62129576D01*
X70020911Y-62127661D01*
X70020910Y-62127661D01*
X69958060Y-62101628D01*
X69958057Y-62101626D01*
X69953438Y-62099713D01*
X69951815Y-62098630D01*
X69896635Y-62043450D01*
X69895552Y-62041827D01*
X69893638Y-62037208D01*
X69893636Y-62037204D01*
X69867603Y-61974354D01*
X69867602Y-61974349D01*
X69865689Y-61969731D01*
X69865308Y-61967818D01*
X69865308Y-61934715D01*
X69862929Y-61932336D01*
X69861465Y-61928800D01*
X69861465Y-60728800D01*
X69862929Y-60725264D01*
X69865308Y-60722885D01*
X69865308Y-60689782D01*
X69865689Y-60687869D01*
X69867601Y-60683251D01*
X69867603Y-60683245D01*
X69893636Y-60620395D01*
X69893639Y-60620389D01*
X69895552Y-60615773D01*
X69896635Y-60614150D01*
X69900171Y-60610613D01*
X69900174Y-60610610D01*
X69948275Y-60562509D01*
X69948278Y-60562506D01*
X69951815Y-60558970D01*
X69953438Y-60557887D01*
X69958054Y-60555974D01*
X69958060Y-60555971D01*
X70020910Y-60529938D01*
X70020916Y-60529936D01*
X70025534Y-60528024D01*
X70027447Y-60527643D01*
X70060550Y-60527643D01*
X70062929Y-60525264D01*
X70066465Y-60523800D01*
X70666465Y-60523800D01*
X70670001Y-60525264D01*
G37*
G36*
X85746742Y-59686601D02*
G01*
X85900687Y-59750367D01*
X86039234Y-59842941D01*
X86157059Y-59960766D01*
X86249633Y-60099313D01*
X86313399Y-60253258D01*
X86345907Y-60416685D01*
X86345907Y-60583315D01*
X86313399Y-60746742D01*
X86249633Y-60900687D01*
X86157059Y-61039234D01*
X86039234Y-61157059D01*
X85900687Y-61249633D01*
X85746742Y-61313399D01*
X85583315Y-61345907D01*
X85416685Y-61345907D01*
X85253258Y-61313399D01*
X85099313Y-61249633D01*
X84960766Y-61157059D01*
X84842941Y-61039234D01*
X84750367Y-60900687D01*
X84686601Y-60746742D01*
X84654093Y-60583315D01*
X84654093Y-60416685D01*
X84686601Y-60253258D01*
X84750367Y-60099313D01*
X84842941Y-59960766D01*
X84960766Y-59842941D01*
X85099313Y-59750367D01*
X85253258Y-59686601D01*
X85416685Y-59654093D01*
X85583315Y-59654093D01*
X85746742Y-59686601D01*
G37*
G36*
X90992228Y-58860913D02*
G01*
X91137117Y-58920928D01*
X91267515Y-59008057D01*
X91378408Y-59118950D01*
X91465537Y-59249348D01*
X91525552Y-59394237D01*
X91556148Y-59548051D01*
X91556148Y-59704879D01*
X91525552Y-59858693D01*
X91465537Y-60003582D01*
X91378408Y-60133980D01*
X91267515Y-60244873D01*
X91137117Y-60332002D01*
X90992228Y-60392017D01*
X90838414Y-60422613D01*
X90681586Y-60422613D01*
X90527772Y-60392017D01*
X90382883Y-60332002D01*
X90252485Y-60244873D01*
X90141592Y-60133980D01*
X90054463Y-60003582D01*
X89994448Y-59858693D01*
X89963852Y-59704879D01*
X89963852Y-59548051D01*
X89994448Y-59394237D01*
X90054463Y-59249348D01*
X90141592Y-59118950D01*
X90252485Y-59008057D01*
X90382883Y-58920928D01*
X90527772Y-58860913D01*
X90681586Y-58830317D01*
X90838414Y-58830317D01*
X90992228Y-58860913D01*
G37*
G36*
X85746742Y-57146601D02*
G01*
X85900687Y-57210367D01*
X86039234Y-57302941D01*
X86157059Y-57420766D01*
X86249633Y-57559313D01*
X86313399Y-57713258D01*
X86345907Y-57876685D01*
X86345907Y-58043315D01*
X86313399Y-58206742D01*
X86249633Y-58360687D01*
X86157059Y-58499234D01*
X86039234Y-58617059D01*
X85900687Y-58709633D01*
X85746742Y-58773399D01*
X85583315Y-58805907D01*
X85416685Y-58805907D01*
X85253258Y-58773399D01*
X85099313Y-58709633D01*
X84960766Y-58617059D01*
X84842941Y-58499234D01*
X84750367Y-58360687D01*
X84686601Y-58206742D01*
X84654093Y-58043315D01*
X84654093Y-57876685D01*
X84686601Y-57713258D01*
X84750367Y-57559313D01*
X84842941Y-57420766D01*
X84960766Y-57302941D01*
X85099313Y-57210367D01*
X85253258Y-57146601D01*
X85416685Y-57114093D01*
X85583315Y-57114093D01*
X85746742Y-57146601D01*
G37*
G36*
X77832562Y-56320912D02*
G01*
X77996378Y-56388767D01*
X78143809Y-56487277D01*
X78269188Y-56612656D01*
X78367698Y-56760087D01*
X78435553Y-56923903D01*
X78470145Y-57097808D01*
X78470145Y-57275122D01*
X78435553Y-57449027D01*
X78367698Y-57612843D01*
X78269188Y-57760274D01*
X78143809Y-57885653D01*
X77996378Y-57984163D01*
X77832562Y-58052018D01*
X77658657Y-58086610D01*
X77481343Y-58086610D01*
X77307438Y-58052018D01*
X77143622Y-57984163D01*
X76996191Y-57885653D01*
X76870812Y-57760274D01*
X76772302Y-57612843D01*
X76704447Y-57449027D01*
X76669855Y-57275122D01*
X76669855Y-57097808D01*
X76704447Y-56923903D01*
X76772302Y-56760087D01*
X76870812Y-56612656D01*
X76996191Y-56487277D01*
X77143622Y-56388767D01*
X77307438Y-56320912D01*
X77481343Y-56286320D01*
X77658657Y-56286320D01*
X77832562Y-56320912D01*
G37*
G36*
X34981256Y-55375219D02*
G01*
X35144257Y-55442736D01*
X35290954Y-55540756D01*
X35415709Y-55665511D01*
X35513729Y-55812208D01*
X35581246Y-55975209D01*
X35615666Y-56148250D01*
X35615666Y-56324680D01*
X35581246Y-56497721D01*
X35513729Y-56660722D01*
X35415709Y-56807419D01*
X35290954Y-56932174D01*
X35144257Y-57030194D01*
X34981256Y-57097711D01*
X34808215Y-57132131D01*
X34631785Y-57132131D01*
X34458744Y-57097711D01*
X34295743Y-57030194D01*
X34149046Y-56932174D01*
X34024291Y-56807419D01*
X33926271Y-56660722D01*
X33858754Y-56497721D01*
X33824334Y-56324680D01*
X33824334Y-56148250D01*
X33858754Y-55975209D01*
X33926271Y-55812208D01*
X34024291Y-55665511D01*
X34149046Y-55540756D01*
X34295743Y-55442736D01*
X34458744Y-55375219D01*
X34631785Y-55340799D01*
X34808215Y-55340799D01*
X34981256Y-55375219D01*
G37*
G36*
X90992228Y-55234861D02*
G01*
X91137117Y-55294876D01*
X91267515Y-55382005D01*
X91378408Y-55492898D01*
X91465537Y-55623296D01*
X91525552Y-55768185D01*
X91556148Y-55921999D01*
X91556148Y-56078827D01*
X91525552Y-56232641D01*
X91465537Y-56377530D01*
X91378408Y-56507928D01*
X91267515Y-56618821D01*
X91137117Y-56705950D01*
X90992228Y-56765965D01*
X90838414Y-56796561D01*
X90681586Y-56796561D01*
X90527772Y-56765965D01*
X90382883Y-56705950D01*
X90252485Y-56618821D01*
X90141592Y-56507928D01*
X90054463Y-56377530D01*
X89994448Y-56232641D01*
X89963852Y-56078827D01*
X89963852Y-55921999D01*
X89994448Y-55768185D01*
X90054463Y-55623296D01*
X90141592Y-55492898D01*
X90252485Y-55382005D01*
X90382883Y-55294876D01*
X90527772Y-55234861D01*
X90681586Y-55204265D01*
X90838414Y-55204265D01*
X90992228Y-55234861D01*
G37*
G36*
X85746742Y-54606601D02*
G01*
X85900687Y-54670367D01*
X86039234Y-54762941D01*
X86157059Y-54880766D01*
X86249633Y-55019313D01*
X86313399Y-55173258D01*
X86345907Y-55336685D01*
X86345907Y-55503315D01*
X86313399Y-55666742D01*
X86249633Y-55820687D01*
X86157059Y-55959234D01*
X86039234Y-56077059D01*
X85900687Y-56169633D01*
X85746742Y-56233399D01*
X85583315Y-56265907D01*
X85416685Y-56265907D01*
X85253258Y-56233399D01*
X85099313Y-56169633D01*
X84960766Y-56077059D01*
X84842941Y-55959234D01*
X84750367Y-55820687D01*
X84686601Y-55666742D01*
X84654093Y-55503315D01*
X84654093Y-55336685D01*
X84686601Y-55173258D01*
X84750367Y-55019313D01*
X84842941Y-54880766D01*
X84960766Y-54762941D01*
X85099313Y-54670367D01*
X85253258Y-54606601D01*
X85416685Y-54574093D01*
X85583315Y-54574093D01*
X85746742Y-54606601D01*
G37*
G36*
X40802228Y-49860913D02*
G01*
X40947117Y-49920928D01*
X41077515Y-50008057D01*
X41188408Y-50118950D01*
X41275537Y-50249348D01*
X41335552Y-50394237D01*
X41366148Y-50548051D01*
X41366148Y-50704879D01*
X41335552Y-50858693D01*
X41275537Y-51003582D01*
X41188408Y-51133980D01*
X41077515Y-51244873D01*
X40947117Y-51332002D01*
X40802228Y-51392017D01*
X40648414Y-51422613D01*
X40491586Y-51422613D01*
X40337772Y-51392017D01*
X40192883Y-51332002D01*
X40062485Y-51244873D01*
X39951592Y-51133980D01*
X39864463Y-51003582D01*
X39804448Y-50858693D01*
X39773852Y-50704879D01*
X39773852Y-50548051D01*
X39804448Y-50394237D01*
X39864463Y-50249348D01*
X39951592Y-50118950D01*
X40062485Y-50008057D01*
X40192883Y-49920928D01*
X40337772Y-49860913D01*
X40491586Y-49830317D01*
X40648414Y-49830317D01*
X40802228Y-49860913D01*
G37*
G36*
X34138836Y-50031598D02*
G01*
X34148316Y-50031598D01*
X34175623Y-50038914D01*
X34244100Y-50052535D01*
X34276423Y-50065924D01*
X34299610Y-50072137D01*
X34320401Y-50084141D01*
X34352722Y-50097529D01*
X34410770Y-50136315D01*
X34435257Y-50150453D01*
X34441959Y-50157155D01*
X34450482Y-50162850D01*
X34533614Y-50245982D01*
X34539308Y-50254504D01*
X34546012Y-50261208D01*
X34560151Y-50285698D01*
X34598935Y-50343742D01*
X34612321Y-50376059D01*
X34624328Y-50396855D01*
X34630541Y-50420045D01*
X34643929Y-50452364D01*
X34657548Y-50520836D01*
X34664867Y-50548149D01*
X34664867Y-50557629D01*
X34666866Y-50567679D01*
X34666866Y-50685250D01*
X34664867Y-50695299D01*
X34664867Y-50704781D01*
X34657547Y-50732096D01*
X34643929Y-50800565D01*
X34630542Y-50832881D01*
X34624328Y-50856075D01*
X34612320Y-50876872D01*
X34598935Y-50909187D01*
X34560155Y-50967224D01*
X34546012Y-50991722D01*
X34539306Y-50998427D01*
X34533614Y-51006947D01*
X34450482Y-51090079D01*
X34441962Y-51095771D01*
X34435257Y-51102477D01*
X34410759Y-51116620D01*
X34352722Y-51155400D01*
X34320407Y-51168785D01*
X34299610Y-51180793D01*
X34276416Y-51187007D01*
X34244100Y-51200394D01*
X34175629Y-51214013D01*
X34148316Y-51221332D01*
X34138836Y-51221332D01*
X34128786Y-51223331D01*
X34011214Y-51223331D01*
X34001164Y-51221332D01*
X33991684Y-51221332D01*
X33964371Y-51214013D01*
X33895899Y-51200394D01*
X33863580Y-51187006D01*
X33840390Y-51180793D01*
X33819594Y-51168786D01*
X33787277Y-51155400D01*
X33729233Y-51116616D01*
X33704743Y-51102477D01*
X33698039Y-51095773D01*
X33689517Y-51090079D01*
X33606385Y-51006947D01*
X33600690Y-50998424D01*
X33593988Y-50991722D01*
X33579850Y-50967235D01*
X33541064Y-50909187D01*
X33527676Y-50876866D01*
X33515672Y-50856075D01*
X33509459Y-50832888D01*
X33496070Y-50800565D01*
X33482450Y-50732090D01*
X33475133Y-50704781D01*
X33475133Y-50695300D01*
X33473134Y-50685250D01*
X33473134Y-50567679D01*
X33475133Y-50557628D01*
X33475133Y-50548149D01*
X33482449Y-50520842D01*
X33496070Y-50452364D01*
X33509459Y-50420038D01*
X33515672Y-50396855D01*
X33527674Y-50376065D01*
X33541064Y-50343742D01*
X33579854Y-50285687D01*
X33593988Y-50261208D01*
X33600688Y-50254507D01*
X33606385Y-50245982D01*
X33689517Y-50162850D01*
X33698042Y-50157153D01*
X33704743Y-50150453D01*
X33729222Y-50136319D01*
X33787277Y-50097529D01*
X33819600Y-50084139D01*
X33840390Y-50072137D01*
X33863573Y-50065924D01*
X33895899Y-50052535D01*
X33964377Y-50038914D01*
X33991684Y-50031598D01*
X34001164Y-50031598D01*
X34011214Y-50029599D01*
X34128786Y-50029599D01*
X34138836Y-50031598D01*
G37*
G36*
X91802228Y-48135913D02*
G01*
X91947117Y-48195928D01*
X92077515Y-48283057D01*
X92188408Y-48393950D01*
X92275537Y-48524348D01*
X92335552Y-48669237D01*
X92366148Y-48823051D01*
X92366148Y-48979879D01*
X92335552Y-49133693D01*
X92275537Y-49278582D01*
X92188408Y-49408980D01*
X92077515Y-49519873D01*
X91947117Y-49607002D01*
X91802228Y-49667017D01*
X91648414Y-49697613D01*
X91491586Y-49697613D01*
X91337772Y-49667017D01*
X91192883Y-49607002D01*
X91062485Y-49519873D01*
X90951592Y-49408980D01*
X90864463Y-49278582D01*
X90804448Y-49133693D01*
X90773852Y-48979879D01*
X90773852Y-48823051D01*
X90804448Y-48669237D01*
X90864463Y-48524348D01*
X90951592Y-48393950D01*
X91062485Y-48283057D01*
X91192883Y-48195928D01*
X91337772Y-48135913D01*
X91491586Y-48105317D01*
X91648414Y-48105317D01*
X91802228Y-48135913D01*
G37*
G36*
X98638836Y-48031598D02*
G01*
X98648316Y-48031598D01*
X98675623Y-48038914D01*
X98744100Y-48052535D01*
X98776423Y-48065924D01*
X98799610Y-48072137D01*
X98820401Y-48084141D01*
X98852722Y-48097529D01*
X98910770Y-48136315D01*
X98935257Y-48150453D01*
X98941959Y-48157155D01*
X98950482Y-48162850D01*
X99033614Y-48245982D01*
X99039308Y-48254504D01*
X99046012Y-48261208D01*
X99060151Y-48285698D01*
X99098935Y-48343742D01*
X99112321Y-48376059D01*
X99124328Y-48396855D01*
X99130541Y-48420045D01*
X99143929Y-48452364D01*
X99157548Y-48520836D01*
X99164867Y-48548149D01*
X99164867Y-48557629D01*
X99166866Y-48567679D01*
X99166866Y-48685250D01*
X99164867Y-48695299D01*
X99164867Y-48704781D01*
X99157547Y-48732096D01*
X99143929Y-48800565D01*
X99130542Y-48832881D01*
X99124328Y-48856075D01*
X99112320Y-48876872D01*
X99098935Y-48909187D01*
X99060155Y-48967224D01*
X99046012Y-48991722D01*
X99039306Y-48998427D01*
X99033614Y-49006947D01*
X98950482Y-49090079D01*
X98941962Y-49095771D01*
X98935257Y-49102477D01*
X98910759Y-49116620D01*
X98852722Y-49155400D01*
X98820407Y-49168785D01*
X98799610Y-49180793D01*
X98776416Y-49187007D01*
X98744100Y-49200394D01*
X98675629Y-49214013D01*
X98648316Y-49221332D01*
X98638836Y-49221332D01*
X98628786Y-49223331D01*
X98511214Y-49223331D01*
X98501164Y-49221332D01*
X98491684Y-49221332D01*
X98464371Y-49214013D01*
X98395899Y-49200394D01*
X98363580Y-49187006D01*
X98340390Y-49180793D01*
X98319594Y-49168786D01*
X98287277Y-49155400D01*
X98229233Y-49116616D01*
X98204743Y-49102477D01*
X98198039Y-49095773D01*
X98189517Y-49090079D01*
X98106385Y-49006947D01*
X98100690Y-48998424D01*
X98093988Y-48991722D01*
X98079850Y-48967235D01*
X98041064Y-48909187D01*
X98027676Y-48876866D01*
X98015672Y-48856075D01*
X98009459Y-48832888D01*
X97996070Y-48800565D01*
X97982450Y-48732090D01*
X97975133Y-48704781D01*
X97975133Y-48695300D01*
X97973134Y-48685250D01*
X97973134Y-48567679D01*
X97975133Y-48557628D01*
X97975133Y-48548149D01*
X97982449Y-48520842D01*
X97996070Y-48452364D01*
X98009459Y-48420038D01*
X98015672Y-48396855D01*
X98027674Y-48376065D01*
X98041064Y-48343742D01*
X98079854Y-48285687D01*
X98093988Y-48261208D01*
X98100688Y-48254507D01*
X98106385Y-48245982D01*
X98189517Y-48162850D01*
X98198042Y-48157153D01*
X98204743Y-48150453D01*
X98229222Y-48136319D01*
X98287277Y-48097529D01*
X98319600Y-48084139D01*
X98340390Y-48072137D01*
X98363573Y-48065924D01*
X98395899Y-48052535D01*
X98464377Y-48038914D01*
X98491684Y-48031598D01*
X98501164Y-48031598D01*
X98511214Y-48029599D01*
X98628786Y-48029599D01*
X98638836Y-48031598D01*
G37*
G36*
X104638836Y-48031598D02*
G01*
X104648316Y-48031598D01*
X104675623Y-48038914D01*
X104744100Y-48052535D01*
X104776423Y-48065924D01*
X104799610Y-48072137D01*
X104820401Y-48084141D01*
X104852722Y-48097529D01*
X104910770Y-48136315D01*
X104935257Y-48150453D01*
X104941959Y-48157155D01*
X104950482Y-48162850D01*
X105033614Y-48245982D01*
X105039308Y-48254504D01*
X105046012Y-48261208D01*
X105060151Y-48285698D01*
X105098935Y-48343742D01*
X105112321Y-48376059D01*
X105124328Y-48396855D01*
X105130541Y-48420045D01*
X105143929Y-48452364D01*
X105157548Y-48520836D01*
X105164867Y-48548149D01*
X105164867Y-48557629D01*
X105166866Y-48567679D01*
X105166866Y-48685250D01*
X105164867Y-48695299D01*
X105164867Y-48704781D01*
X105157547Y-48732096D01*
X105143929Y-48800565D01*
X105130542Y-48832881D01*
X105124328Y-48856075D01*
X105112320Y-48876872D01*
X105098935Y-48909187D01*
X105060155Y-48967224D01*
X105046012Y-48991722D01*
X105039306Y-48998427D01*
X105033614Y-49006947D01*
X104950482Y-49090079D01*
X104941962Y-49095771D01*
X104935257Y-49102477D01*
X104910759Y-49116620D01*
X104852722Y-49155400D01*
X104820407Y-49168785D01*
X104799610Y-49180793D01*
X104776416Y-49187007D01*
X104744100Y-49200394D01*
X104675629Y-49214013D01*
X104648316Y-49221332D01*
X104638836Y-49221332D01*
X104628786Y-49223331D01*
X104511214Y-49223331D01*
X104501164Y-49221332D01*
X104491684Y-49221332D01*
X104464371Y-49214013D01*
X104395899Y-49200394D01*
X104363580Y-49187006D01*
X104340390Y-49180793D01*
X104319594Y-49168786D01*
X104287277Y-49155400D01*
X104229233Y-49116616D01*
X104204743Y-49102477D01*
X104198039Y-49095773D01*
X104189517Y-49090079D01*
X104106385Y-49006947D01*
X104100690Y-48998424D01*
X104093988Y-48991722D01*
X104079850Y-48967235D01*
X104041064Y-48909187D01*
X104027676Y-48876866D01*
X104015672Y-48856075D01*
X104009459Y-48832888D01*
X103996070Y-48800565D01*
X103982450Y-48732090D01*
X103975133Y-48704781D01*
X103975133Y-48695300D01*
X103973134Y-48685250D01*
X103973134Y-48567679D01*
X103975133Y-48557628D01*
X103975133Y-48548149D01*
X103982449Y-48520842D01*
X103996070Y-48452364D01*
X104009459Y-48420038D01*
X104015672Y-48396855D01*
X104027674Y-48376065D01*
X104041064Y-48343742D01*
X104079854Y-48285687D01*
X104093988Y-48261208D01*
X104100688Y-48254507D01*
X104106385Y-48245982D01*
X104189517Y-48162850D01*
X104198042Y-48157153D01*
X104204743Y-48150453D01*
X104229222Y-48136319D01*
X104287277Y-48097529D01*
X104319600Y-48084139D01*
X104340390Y-48072137D01*
X104363573Y-48065924D01*
X104395899Y-48052535D01*
X104464377Y-48038914D01*
X104491684Y-48031598D01*
X104501164Y-48031598D01*
X104511214Y-48029599D01*
X104628786Y-48029599D01*
X104638836Y-48031598D01*
G37*
G36*
X78430000Y-48526465D02*
G01*
X76630000Y-48526465D01*
X76630000Y-46726465D01*
X78430000Y-46726465D01*
X78430000Y-48526465D01*
G37*
G36*
X114710285Y-46474525D02*
G01*
X114891397Y-46549544D01*
X115054393Y-46658455D01*
X115193010Y-46797072D01*
X115301921Y-46960068D01*
X115376940Y-47141180D01*
X115415185Y-47333448D01*
X115415185Y-47529482D01*
X115376940Y-47721750D01*
X115301921Y-47902862D01*
X115193010Y-48065858D01*
X115054393Y-48204475D01*
X114891397Y-48313386D01*
X114710285Y-48388405D01*
X114518017Y-48426650D01*
X114321983Y-48426650D01*
X114129715Y-48388405D01*
X113948603Y-48313386D01*
X113785607Y-48204475D01*
X113646990Y-48065858D01*
X113538079Y-47902862D01*
X113463060Y-47721750D01*
X113424815Y-47529482D01*
X113424815Y-47333448D01*
X113463060Y-47141180D01*
X113538079Y-46960068D01*
X113646990Y-46797072D01*
X113785607Y-46658455D01*
X113948603Y-46549544D01*
X114129715Y-46474525D01*
X114321983Y-46436280D01*
X114518017Y-46436280D01*
X114710285Y-46474525D01*
G37*
G36*
X27722519Y-38621187D02*
G01*
X28050507Y-38696048D01*
X28368050Y-38807161D01*
X28671157Y-38953130D01*
X28956014Y-39132117D01*
X29219040Y-39341874D01*
X29456926Y-39579760D01*
X29666683Y-39842786D01*
X29845670Y-40127643D01*
X29991639Y-40430750D01*
X30102752Y-40748293D01*
X30177613Y-41076281D01*
X30215280Y-41410589D01*
X30215280Y-41747011D01*
X30177613Y-42081319D01*
X30102752Y-42409307D01*
X29991639Y-42726850D01*
X29845670Y-43029957D01*
X29666683Y-43314814D01*
X29456926Y-43577840D01*
X29219040Y-43815726D01*
X28956014Y-44025483D01*
X28671157Y-44204470D01*
X28368050Y-44350439D01*
X28050507Y-44461552D01*
X27722519Y-44536413D01*
X27388211Y-44574080D01*
X27051789Y-44574080D01*
X26717481Y-44536413D01*
X26389493Y-44461552D01*
X26071950Y-44350439D01*
X25768843Y-44204470D01*
X25483986Y-44025483D01*
X25220960Y-43815726D01*
X24983074Y-43577840D01*
X24773317Y-43314814D01*
X24594330Y-43029957D01*
X24448361Y-42726850D01*
X24337248Y-42409307D01*
X24262387Y-42081319D01*
X24224720Y-41747011D01*
X24224720Y-41410589D01*
X24262387Y-41076281D01*
X24337248Y-40748293D01*
X24448361Y-40430750D01*
X24594330Y-40127643D01*
X24773317Y-39842786D01*
X24983074Y-39579760D01*
X25220960Y-39341874D01*
X25483986Y-39132117D01*
X25768843Y-38953130D01*
X26071950Y-38807161D01*
X26389493Y-38696048D01*
X26717481Y-38621187D01*
X27051789Y-38583520D01*
X27388211Y-38583520D01*
X27722519Y-38621187D01*
G37*
G36*
X37776742Y-40313066D02*
G01*
X37930687Y-40376832D01*
X38069234Y-40469406D01*
X38187059Y-40587231D01*
X38279633Y-40725778D01*
X38343399Y-40879723D01*
X38375907Y-41043150D01*
X38375907Y-41209780D01*
X38343399Y-41373207D01*
X38279633Y-41527152D01*
X38187059Y-41665699D01*
X38069234Y-41783524D01*
X37930687Y-41876098D01*
X37776742Y-41939864D01*
X37613315Y-41972372D01*
X37446685Y-41972372D01*
X37283258Y-41939864D01*
X37129313Y-41876098D01*
X36990766Y-41783524D01*
X36872941Y-41665699D01*
X36780367Y-41527152D01*
X36716601Y-41373207D01*
X36684093Y-41209780D01*
X36684093Y-41043150D01*
X36716601Y-40879723D01*
X36780367Y-40725778D01*
X36872941Y-40587231D01*
X36990766Y-40469406D01*
X37129313Y-40376832D01*
X37283258Y-40313066D01*
X37446685Y-40280558D01*
X37613315Y-40280558D01*
X37776742Y-40313066D01*
G37*
G36*
X40316742Y-40313066D02*
G01*
X40470687Y-40376832D01*
X40609234Y-40469406D01*
X40727059Y-40587231D01*
X40819633Y-40725778D01*
X40883399Y-40879723D01*
X40915907Y-41043150D01*
X40915907Y-41209780D01*
X40883399Y-41373207D01*
X40819633Y-41527152D01*
X40727059Y-41665699D01*
X40609234Y-41783524D01*
X40470687Y-41876098D01*
X40316742Y-41939864D01*
X40153315Y-41972372D01*
X39986685Y-41972372D01*
X39823258Y-41939864D01*
X39669313Y-41876098D01*
X39530766Y-41783524D01*
X39412941Y-41665699D01*
X39320367Y-41527152D01*
X39256601Y-41373207D01*
X39224093Y-41209780D01*
X39224093Y-41043150D01*
X39256601Y-40879723D01*
X39320367Y-40725778D01*
X39412941Y-40587231D01*
X39530766Y-40469406D01*
X39669313Y-40376832D01*
X39823258Y-40313066D01*
X39986685Y-40280558D01*
X40153315Y-40280558D01*
X40316742Y-40313066D01*
G37*
G36*
X114710285Y-38854525D02*
G01*
X114891397Y-38929544D01*
X115054393Y-39038455D01*
X115193010Y-39177072D01*
X115301921Y-39340068D01*
X115376940Y-39521180D01*
X115415185Y-39713448D01*
X115415185Y-39909482D01*
X115376940Y-40101750D01*
X115301921Y-40282862D01*
X115193010Y-40445858D01*
X115054393Y-40584475D01*
X114891397Y-40693386D01*
X114710285Y-40768405D01*
X114518017Y-40806650D01*
X114321983Y-40806650D01*
X114129715Y-40768405D01*
X113948603Y-40693386D01*
X113785607Y-40584475D01*
X113646990Y-40445858D01*
X113538079Y-40282862D01*
X113463060Y-40101750D01*
X113424815Y-39909482D01*
X113424815Y-39713448D01*
X113463060Y-39521180D01*
X113538079Y-39340068D01*
X113646990Y-39177072D01*
X113785607Y-39038455D01*
X113948603Y-38929544D01*
X114129715Y-38854525D01*
X114321983Y-38816280D01*
X114518017Y-38816280D01*
X114710285Y-38854525D01*
G37*
G36*
X55930000Y-40526465D02*
G01*
X54130000Y-40526465D01*
X54130000Y-38726465D01*
X55930000Y-38726465D01*
X55930000Y-40526465D01*
G37*
G36*
X75200000Y-40526465D02*
G01*
X73400000Y-40526465D01*
X73400000Y-38726465D01*
X75200000Y-38726465D01*
X75200000Y-40526465D01*
G37*
G36*
X93802228Y-35278534D02*
G01*
X93947117Y-35338549D01*
X94077515Y-35425678D01*
X94188408Y-35536571D01*
X94275537Y-35666969D01*
X94335552Y-35811858D01*
X94366148Y-35965672D01*
X94366148Y-36122500D01*
X94335552Y-36276314D01*
X94275537Y-36421203D01*
X94188408Y-36551601D01*
X94077515Y-36662494D01*
X93947117Y-36749623D01*
X93802228Y-36809638D01*
X93648414Y-36840234D01*
X93491586Y-36840234D01*
X93337772Y-36809638D01*
X93192883Y-36749623D01*
X93062485Y-36662494D01*
X92951592Y-36551601D01*
X92864463Y-36421203D01*
X92804448Y-36276314D01*
X92773852Y-36122500D01*
X92773852Y-35965672D01*
X92804448Y-35811858D01*
X92864463Y-35666969D01*
X92951592Y-35536571D01*
X93062485Y-35425678D01*
X93192883Y-35338549D01*
X93337772Y-35278534D01*
X93491586Y-35247938D01*
X93648414Y-35247938D01*
X93802228Y-35278534D01*
G37*
G36*
X41638376Y-34360913D02*
G01*
X41783265Y-34420928D01*
X41913663Y-34508057D01*
X42024556Y-34618950D01*
X42111685Y-34749348D01*
X42171700Y-34894237D01*
X42202296Y-35048051D01*
X42202296Y-35204879D01*
X42171700Y-35358693D01*
X42111685Y-35503582D01*
X42024556Y-35633980D01*
X41913663Y-35744873D01*
X41783265Y-35832002D01*
X41638376Y-35892017D01*
X41484562Y-35922613D01*
X41327734Y-35922613D01*
X41173920Y-35892017D01*
X41029031Y-35832002D01*
X40898633Y-35744873D01*
X40787740Y-35633980D01*
X40700611Y-35503582D01*
X40640596Y-35358693D01*
X40610000Y-35204879D01*
X40610000Y-35048051D01*
X40640596Y-34894237D01*
X40700611Y-34749348D01*
X40787740Y-34618950D01*
X40898633Y-34508057D01*
X41029031Y-34420928D01*
X41173920Y-34360913D01*
X41327734Y-34330317D01*
X41484562Y-34330317D01*
X41638376Y-34360913D01*
G37*
G36*
X100568836Y-34158999D02*
G01*
X100578316Y-34158999D01*
X100605623Y-34166315D01*
X100674100Y-34179936D01*
X100706423Y-34193325D01*
X100729610Y-34199538D01*
X100750401Y-34211542D01*
X100782722Y-34224930D01*
X100840770Y-34263716D01*
X100865257Y-34277854D01*
X100871959Y-34284556D01*
X100880482Y-34290251D01*
X100963614Y-34373383D01*
X100969308Y-34381905D01*
X100976012Y-34388609D01*
X100990151Y-34413099D01*
X101028935Y-34471143D01*
X101042321Y-34503460D01*
X101054328Y-34524256D01*
X101060541Y-34547446D01*
X101073929Y-34579765D01*
X101087548Y-34648237D01*
X101094867Y-34675550D01*
X101094867Y-34685030D01*
X101096866Y-34695080D01*
X101096866Y-34812651D01*
X101094867Y-34822700D01*
X101094867Y-34832182D01*
X101087547Y-34859497D01*
X101073929Y-34927966D01*
X101060542Y-34960282D01*
X101054328Y-34983476D01*
X101042320Y-35004273D01*
X101028935Y-35036588D01*
X100990155Y-35094625D01*
X100976012Y-35119123D01*
X100969306Y-35125828D01*
X100963614Y-35134348D01*
X100880482Y-35217480D01*
X100871962Y-35223172D01*
X100865257Y-35229878D01*
X100840759Y-35244021D01*
X100782722Y-35282801D01*
X100750407Y-35296186D01*
X100729610Y-35308194D01*
X100706416Y-35314408D01*
X100674100Y-35327795D01*
X100605629Y-35341414D01*
X100578316Y-35348733D01*
X100568836Y-35348733D01*
X100558786Y-35350732D01*
X100441214Y-35350732D01*
X100431164Y-35348733D01*
X100421684Y-35348733D01*
X100394371Y-35341414D01*
X100325899Y-35327795D01*
X100293580Y-35314407D01*
X100270390Y-35308194D01*
X100249594Y-35296187D01*
X100217277Y-35282801D01*
X100159233Y-35244017D01*
X100134743Y-35229878D01*
X100128039Y-35223174D01*
X100119517Y-35217480D01*
X100036385Y-35134348D01*
X100030690Y-35125825D01*
X100023988Y-35119123D01*
X100009850Y-35094636D01*
X99971064Y-35036588D01*
X99957676Y-35004267D01*
X99945672Y-34983476D01*
X99939459Y-34960289D01*
X99926070Y-34927966D01*
X99912450Y-34859491D01*
X99905133Y-34832182D01*
X99905133Y-34822701D01*
X99903134Y-34812651D01*
X99903134Y-34695080D01*
X99905133Y-34685029D01*
X99905133Y-34675550D01*
X99912449Y-34648243D01*
X99926070Y-34579765D01*
X99939459Y-34547439D01*
X99945672Y-34524256D01*
X99957674Y-34503466D01*
X99971064Y-34471143D01*
X100009854Y-34413088D01*
X100023988Y-34388609D01*
X100030688Y-34381908D01*
X100036385Y-34373383D01*
X100119517Y-34290251D01*
X100128042Y-34284554D01*
X100134743Y-34277854D01*
X100159222Y-34263720D01*
X100217277Y-34224930D01*
X100249600Y-34211540D01*
X100270390Y-34199538D01*
X100293573Y-34193325D01*
X100325899Y-34179936D01*
X100394377Y-34166315D01*
X100421684Y-34158999D01*
X100431164Y-34158999D01*
X100441214Y-34157000D01*
X100558786Y-34157000D01*
X100568836Y-34158999D01*
G37*
G36*
X106638836Y-34131598D02*
G01*
X106648316Y-34131598D01*
X106675623Y-34138914D01*
X106744100Y-34152535D01*
X106776423Y-34165924D01*
X106799610Y-34172137D01*
X106820401Y-34184141D01*
X106852722Y-34197529D01*
X106910770Y-34236315D01*
X106935257Y-34250453D01*
X106941959Y-34257155D01*
X106950482Y-34262850D01*
X107033614Y-34345982D01*
X107039308Y-34354504D01*
X107046012Y-34361208D01*
X107060151Y-34385698D01*
X107098935Y-34443742D01*
X107112321Y-34476059D01*
X107124328Y-34496855D01*
X107130541Y-34520045D01*
X107143929Y-34552364D01*
X107157548Y-34620836D01*
X107164867Y-34648149D01*
X107164867Y-34657629D01*
X107166866Y-34667679D01*
X107166866Y-34785250D01*
X107164867Y-34795299D01*
X107164867Y-34804781D01*
X107157547Y-34832096D01*
X107143929Y-34900565D01*
X107130542Y-34932881D01*
X107124328Y-34956075D01*
X107112320Y-34976872D01*
X107098935Y-35009187D01*
X107060155Y-35067224D01*
X107046012Y-35091722D01*
X107039306Y-35098427D01*
X107033614Y-35106947D01*
X106950482Y-35190079D01*
X106941962Y-35195771D01*
X106935257Y-35202477D01*
X106910759Y-35216620D01*
X106852722Y-35255400D01*
X106820407Y-35268785D01*
X106799610Y-35280793D01*
X106776416Y-35287007D01*
X106744100Y-35300394D01*
X106675629Y-35314013D01*
X106648316Y-35321332D01*
X106638836Y-35321332D01*
X106628786Y-35323331D01*
X106511214Y-35323331D01*
X106501164Y-35321332D01*
X106491684Y-35321332D01*
X106464371Y-35314013D01*
X106395899Y-35300394D01*
X106363580Y-35287006D01*
X106340390Y-35280793D01*
X106319594Y-35268786D01*
X106287277Y-35255400D01*
X106229233Y-35216616D01*
X106204743Y-35202477D01*
X106198039Y-35195773D01*
X106189517Y-35190079D01*
X106106385Y-35106947D01*
X106100690Y-35098424D01*
X106093988Y-35091722D01*
X106079850Y-35067235D01*
X106041064Y-35009187D01*
X106027676Y-34976866D01*
X106015672Y-34956075D01*
X106009459Y-34932888D01*
X105996070Y-34900565D01*
X105982450Y-34832090D01*
X105975133Y-34804781D01*
X105975133Y-34795300D01*
X105973134Y-34785250D01*
X105973134Y-34667679D01*
X105975133Y-34657628D01*
X105975133Y-34648149D01*
X105982449Y-34620842D01*
X105996070Y-34552364D01*
X106009459Y-34520038D01*
X106015672Y-34496855D01*
X106027674Y-34476065D01*
X106041064Y-34443742D01*
X106079854Y-34385687D01*
X106093988Y-34361208D01*
X106100688Y-34354507D01*
X106106385Y-34345982D01*
X106189517Y-34262850D01*
X106198042Y-34257153D01*
X106204743Y-34250453D01*
X106229222Y-34236319D01*
X106287277Y-34197529D01*
X106319600Y-34184139D01*
X106340390Y-34172137D01*
X106363573Y-34165924D01*
X106395899Y-34152535D01*
X106464377Y-34138914D01*
X106491684Y-34131598D01*
X106501164Y-34131598D01*
X106511214Y-34129599D01*
X106628786Y-34129599D01*
X106638836Y-34131598D01*
G37*
G36*
X52290285Y-32269525D02*
G01*
X52471397Y-32344544D01*
X52634393Y-32453455D01*
X52773010Y-32592072D01*
X52881921Y-32755068D01*
X52956940Y-32936180D01*
X52995185Y-33128448D01*
X52995185Y-33324482D01*
X52956940Y-33516750D01*
X52881921Y-33697862D01*
X52773010Y-33860858D01*
X52634393Y-33999475D01*
X52471397Y-34108386D01*
X52290285Y-34183405D01*
X52098017Y-34221650D01*
X51901983Y-34221650D01*
X51709715Y-34183405D01*
X51528603Y-34108386D01*
X51365607Y-33999475D01*
X51226990Y-33860858D01*
X51118079Y-33697862D01*
X51043060Y-33516750D01*
X51004815Y-33324482D01*
X51004815Y-33128448D01*
X51043060Y-32936180D01*
X51118079Y-32755068D01*
X51226990Y-32592072D01*
X51365607Y-32453455D01*
X51528603Y-32344544D01*
X51709715Y-32269525D01*
X51901983Y-32231280D01*
X52098017Y-32231280D01*
X52290285Y-32269525D01*
G37*
G36*
X75850285Y-32169525D02*
G01*
X76031397Y-32244544D01*
X76194393Y-32353455D01*
X76333010Y-32492072D01*
X76441921Y-32655068D01*
X76516940Y-32836180D01*
X76555185Y-33028448D01*
X76555185Y-33224482D01*
X76516940Y-33416750D01*
X76441921Y-33597862D01*
X76333010Y-33760858D01*
X76194393Y-33899475D01*
X76031397Y-34008386D01*
X75850285Y-34083405D01*
X75658017Y-34121650D01*
X75461983Y-34121650D01*
X75269715Y-34083405D01*
X75088603Y-34008386D01*
X74925607Y-33899475D01*
X74786990Y-33760858D01*
X74678079Y-33597862D01*
X74603060Y-33416750D01*
X74564815Y-33224482D01*
X74564815Y-33028448D01*
X74603060Y-32836180D01*
X74678079Y-32655068D01*
X74786990Y-32492072D01*
X74925607Y-32353455D01*
X75088603Y-32244544D01*
X75269715Y-32169525D01*
X75461983Y-32131280D01*
X75658017Y-32131280D01*
X75850285Y-32169525D01*
G37*
G36*
X83470285Y-32169525D02*
G01*
X83651397Y-32244544D01*
X83814393Y-32353455D01*
X83953010Y-32492072D01*
X84061921Y-32655068D01*
X84136940Y-32836180D01*
X84175185Y-33028448D01*
X84175185Y-33224482D01*
X84136940Y-33416750D01*
X84061921Y-33597862D01*
X83953010Y-33760858D01*
X83814393Y-33899475D01*
X83651397Y-34008386D01*
X83470285Y-34083405D01*
X83278017Y-34121650D01*
X83081983Y-34121650D01*
X82889715Y-34083405D01*
X82708603Y-34008386D01*
X82545607Y-33899475D01*
X82406990Y-33760858D01*
X82298079Y-33597862D01*
X82223060Y-33416750D01*
X82184815Y-33224482D01*
X82184815Y-33028448D01*
X82223060Y-32836180D01*
X82298079Y-32655068D01*
X82406990Y-32492072D01*
X82545607Y-32353455D01*
X82708603Y-32244544D01*
X82889715Y-32169525D01*
X83081983Y-32131280D01*
X83278017Y-32131280D01*
X83470285Y-32169525D01*
G37*
G36*
X35138836Y-32558999D02*
G01*
X35148316Y-32558999D01*
X35175623Y-32566315D01*
X35244100Y-32579936D01*
X35276423Y-32593325D01*
X35299610Y-32599538D01*
X35320401Y-32611542D01*
X35352722Y-32624930D01*
X35410770Y-32663716D01*
X35435257Y-32677854D01*
X35441959Y-32684556D01*
X35450482Y-32690251D01*
X35533614Y-32773383D01*
X35539308Y-32781905D01*
X35546012Y-32788609D01*
X35560151Y-32813099D01*
X35598935Y-32871143D01*
X35612321Y-32903460D01*
X35624328Y-32924256D01*
X35630541Y-32947446D01*
X35643929Y-32979765D01*
X35657548Y-33048237D01*
X35664867Y-33075550D01*
X35664867Y-33085030D01*
X35666866Y-33095080D01*
X35666866Y-33212651D01*
X35664867Y-33222700D01*
X35664867Y-33232182D01*
X35657547Y-33259497D01*
X35643929Y-33327966D01*
X35630542Y-33360282D01*
X35624328Y-33383476D01*
X35612320Y-33404273D01*
X35598935Y-33436588D01*
X35560155Y-33494625D01*
X35546012Y-33519123D01*
X35539306Y-33525828D01*
X35533614Y-33534348D01*
X35450482Y-33617480D01*
X35441962Y-33623172D01*
X35435257Y-33629878D01*
X35410759Y-33644021D01*
X35352722Y-33682801D01*
X35320407Y-33696186D01*
X35299610Y-33708194D01*
X35276416Y-33714408D01*
X35244100Y-33727795D01*
X35175629Y-33741414D01*
X35148316Y-33748733D01*
X35138836Y-33748733D01*
X35128786Y-33750732D01*
X35011214Y-33750732D01*
X35001164Y-33748733D01*
X34991684Y-33748733D01*
X34964371Y-33741414D01*
X34895899Y-33727795D01*
X34863580Y-33714407D01*
X34840390Y-33708194D01*
X34819594Y-33696187D01*
X34787277Y-33682801D01*
X34729233Y-33644017D01*
X34704743Y-33629878D01*
X34698039Y-33623174D01*
X34689517Y-33617480D01*
X34606385Y-33534348D01*
X34600690Y-33525825D01*
X34593988Y-33519123D01*
X34579850Y-33494636D01*
X34541064Y-33436588D01*
X34527676Y-33404267D01*
X34515672Y-33383476D01*
X34509459Y-33360289D01*
X34496070Y-33327966D01*
X34482450Y-33259491D01*
X34475133Y-33232182D01*
X34475133Y-33222701D01*
X34473134Y-33212651D01*
X34473134Y-33095080D01*
X34475133Y-33085029D01*
X34475133Y-33075550D01*
X34482449Y-33048243D01*
X34496070Y-32979765D01*
X34509459Y-32947439D01*
X34515672Y-32924256D01*
X34527674Y-32903466D01*
X34541064Y-32871143D01*
X34579854Y-32813088D01*
X34593988Y-32788609D01*
X34600688Y-32781908D01*
X34606385Y-32773383D01*
X34689517Y-32690251D01*
X34698042Y-32684554D01*
X34704743Y-32677854D01*
X34729222Y-32663720D01*
X34787277Y-32624930D01*
X34819600Y-32611540D01*
X34840390Y-32599538D01*
X34863573Y-32593325D01*
X34895899Y-32579936D01*
X34964377Y-32566315D01*
X34991684Y-32558999D01*
X35001164Y-32558999D01*
X35011214Y-32557000D01*
X35128786Y-32557000D01*
X35138836Y-32558999D01*
G37*
G36*
X47638836Y-32031598D02*
G01*
X47648316Y-32031598D01*
X47675623Y-32038914D01*
X47744100Y-32052535D01*
X47776423Y-32065924D01*
X47799610Y-32072137D01*
X47820401Y-32084141D01*
X47852722Y-32097529D01*
X47910770Y-32136315D01*
X47935257Y-32150453D01*
X47941959Y-32157155D01*
X47950482Y-32162850D01*
X48033614Y-32245982D01*
X48039308Y-32254504D01*
X48046012Y-32261208D01*
X48060151Y-32285698D01*
X48098935Y-32343742D01*
X48112321Y-32376059D01*
X48124328Y-32396855D01*
X48130541Y-32420045D01*
X48143929Y-32452364D01*
X48157548Y-32520836D01*
X48164867Y-32548149D01*
X48164867Y-32557629D01*
X48166866Y-32567679D01*
X48166866Y-32685250D01*
X48164867Y-32695299D01*
X48164867Y-32704781D01*
X48157547Y-32732096D01*
X48143929Y-32800565D01*
X48130542Y-32832881D01*
X48124328Y-32856075D01*
X48112320Y-32876872D01*
X48098935Y-32909187D01*
X48060155Y-32967224D01*
X48046012Y-32991722D01*
X48039306Y-32998427D01*
X48033614Y-33006947D01*
X47950482Y-33090079D01*
X47941962Y-33095771D01*
X47935257Y-33102477D01*
X47910759Y-33116620D01*
X47852722Y-33155400D01*
X47820407Y-33168785D01*
X47799610Y-33180793D01*
X47776416Y-33187007D01*
X47744100Y-33200394D01*
X47675629Y-33214013D01*
X47648316Y-33221332D01*
X47638836Y-33221332D01*
X47628786Y-33223331D01*
X47511214Y-33223331D01*
X47501164Y-33221332D01*
X47491684Y-33221332D01*
X47464371Y-33214013D01*
X47395899Y-33200394D01*
X47363580Y-33187006D01*
X47340390Y-33180793D01*
X47319594Y-33168786D01*
X47287277Y-33155400D01*
X47229233Y-33116616D01*
X47204743Y-33102477D01*
X47198039Y-33095773D01*
X47189517Y-33090079D01*
X47106385Y-33006947D01*
X47100690Y-32998424D01*
X47093988Y-32991722D01*
X47079850Y-32967235D01*
X47041064Y-32909187D01*
X47027676Y-32876866D01*
X47015672Y-32856075D01*
X47009459Y-32832888D01*
X46996070Y-32800565D01*
X46982450Y-32732090D01*
X46975133Y-32704781D01*
X46975133Y-32695300D01*
X46973134Y-32685250D01*
X46973134Y-32567679D01*
X46975133Y-32557628D01*
X46975133Y-32548149D01*
X46982449Y-32520842D01*
X46996070Y-32452364D01*
X47009459Y-32420038D01*
X47015672Y-32396855D01*
X47027674Y-32376065D01*
X47041064Y-32343742D01*
X47079854Y-32285687D01*
X47093988Y-32261208D01*
X47100688Y-32254507D01*
X47106385Y-32245982D01*
X47189517Y-32162850D01*
X47198042Y-32157153D01*
X47204743Y-32150453D01*
X47229222Y-32136319D01*
X47287277Y-32097529D01*
X47319600Y-32084139D01*
X47340390Y-32072137D01*
X47363573Y-32065924D01*
X47395899Y-32052535D01*
X47464377Y-32038914D01*
X47491684Y-32031598D01*
X47501164Y-32031598D01*
X47511214Y-32029599D01*
X47628786Y-32029599D01*
X47638836Y-32031598D01*
G37*
G36*
X69302228Y-29985715D02*
G01*
X69447117Y-30045730D01*
X69577515Y-30132859D01*
X69688408Y-30243752D01*
X69775537Y-30374150D01*
X69835552Y-30519039D01*
X69866148Y-30672853D01*
X69866148Y-30829681D01*
X69835552Y-30983495D01*
X69775537Y-31128384D01*
X69688408Y-31258782D01*
X69577515Y-31369675D01*
X69447117Y-31456804D01*
X69302228Y-31516819D01*
X69148414Y-31547415D01*
X68991586Y-31547415D01*
X68837772Y-31516819D01*
X68692883Y-31456804D01*
X68562485Y-31369675D01*
X68451592Y-31258782D01*
X68364463Y-31128384D01*
X68304448Y-30983495D01*
X68273852Y-30829681D01*
X68273852Y-30672853D01*
X68304448Y-30519039D01*
X68364463Y-30374150D01*
X68451592Y-30243752D01*
X68562485Y-30132859D01*
X68692883Y-30045730D01*
X68837772Y-29985715D01*
X68991586Y-29955119D01*
X69148414Y-29955119D01*
X69302228Y-29985715D01*
G37*
M02*
